<svg width="60" height="22" viewBox="0 0 60 22" fill="none" xmlns="http://www.w3.org/2000/svg">
<path d="M30.2263 0.603893L33.3273 6.68043L40.0647 7.75196L35.2439 12.579L36.3068 19.3178L30.2263 16.2245L24.1457 19.3178L25.2086 12.579L20.3878 7.75196L27.1252 6.68043L30.2263 0.603893Z" fill="#FFC226"/>
<path d="M51.8422 2.81217L54.2813 7.59156L59.5805 8.43436L55.7887 12.231L56.6247 17.5312L51.8422 15.0983L47.0597 17.5312L47.8957 12.231L44.1039 8.43436L49.4031 7.59156L51.8422 2.81217Z" fill="#FFC226"/>
<path d="M9.11527 2.81217L11.5544 7.59156L16.8535 8.43436L13.0618 12.231L13.8978 17.5312L9.11527 15.0983L4.33275 17.5312L5.16875 12.231L1.37699 8.43436L6.67618 7.59156L9.11527 2.81217Z" fill="#FFC226"/>
</svg>
