<svg xmlns="http://www.w3.org/2000/svg" viewBox="0 0 113.16 133.35"><defs><style>.cls-1{fill-rule:evenodd;}</style></defs><title>Asset 1</title><g id="Layer_2" data-name="Layer 2"><g id="Layer_1-2" data-name="Layer 1"><path class="cls-1" d="M68.4.12c4.12-.07,9.08-.47,12.24.72,2,.77,3.37,3,5.76,3.36.34,0,1.14-.67,1.44-.72a25.82,25.82,0,0,1,3.84,0c1.07.26,2.51.93,3.6,1.2C96.62,5,97.54,4,98.4,4.2c.45.09,1.26,1,1.68,1.2l2.4.24c2.92.82,5.65,1.89,7.2,4.08s1.91,4.9,2.64,8.16V22c2.49,11.88-1.08,24.4-3.84,34.08C107,61.16,106.88,67.39,103,70c1.35,4.17,1.75,8.36,3.36,12.24,1.21,2.91,3.1,5.66,4.08,8.64l-.48,9.36c.35,1.23,1.08,3,1.44,4.32.66,2.34-.38,13-1.2,14.88-.45,1-1.89,1.31-2.4,2.4-1.69,3.63-3.25,6.59-6.48,8.64-6,3.81-18.58,3.43-26.4,1.44-2.59-.66-9.36.18-11.52.72h-6c-8.08,0-14.5-1.76-17.76-6.48-.53-.77-.6-1.7-1.2-2.4s-1.38-.29-1.68-1c-.69-1.19-.42-3.82-1-6-1.21-4.87-1.67-13.39-.24-18.48.69-2.45,1.8-5.14,2.4-7.44l.24-5.28c.22-.84,1-1.71,1.2-2.4l-.24-5c.19-.67.88-1.17,1.2-1.68A17.85,17.85,0,0,0,43.44,68H43.2v.48a17.13,17.13,0,0,0-1.44,2.4c-1.15,1.59-3,2.89-4.32,4.32-9.73,0-13.7-6.68-17.76-12.48-.6-.86-1.6-1.74-2.16-2.64L16.8,58.2c-1.71-2.53-4.42-4.75-6-7.44l-.72-2.64A51.88,51.88,0,0,0,7,41.88c-.8-1.28-2.06-1.29-2.88-2.16-.37-.39.09-1.21-.24-1.68s-1.25-.64-1.68-1L0,34.68c0-6,6.81-7,12.72-7A19.57,19.57,0,0,1,14.4,31.8v1.44c.23.38,1.2.29,1.44.72v1.2c.49.82,3,2.22,3.84,2.88,2.66,2,5.14,7.9,9.12,8.16.37-.55,1.15-.89,1.44-1.44,1.19-2.27.62-6.23,1.2-8.88l-.24-5.76c1.23-5.77,1.21-12.1,3.6-16.56,1.2-2.25,3.87-4,6.48-4.8L45.6,8C46.15,7.72,47,6.2,48,5.88c1.29-.4,1.63.49,2.64-.24.73-1.25-.11-2.07,1.92-2.16,4.74,4,8.75-1.2,12.24-2.64C65.85.41,67.5.72,68.4.12Z"/></g></g></svg>