<svg width="100" height="100" viewBox="0 0 100 100" fill="none" xmlns="http://www.w3.org/2000/svg">
<path fill-rule="evenodd" clip-rule="evenodd" d="M69.1716 69.1716C70.7337 67.6095 73.2663 67.6095 74.8284 69.1716L98.8284 93.1716C100.391 94.7337 100.391 97.2663 98.8284 98.8284C97.2663 100.391 94.7337 100.391 93.1716 98.8284L69.1716 74.8284C67.6095 73.2663 67.6095 70.7337 69.1716 69.1716Z" fill="#FFC72F"/>
<path fill-rule="evenodd" clip-rule="evenodd" d="M42 8C23.2223 8 8 23.2223 8 42C8 60.7777 23.2223 76 42 76C60.7777 76 76 60.7777 76 42C76 23.2223 60.7777 8 42 8ZM0 42C0 18.804 18.804 0 42 0C65.196 0 84 18.804 84 42C84 65.196 65.196 84 42 84C18.804 84 0 65.196 0 42Z" fill="#FFC72F"/>
</svg>
