<svg width="49" height="48" viewBox="0 0 49 48" fill="none" xmlns="http://www.w3.org/2000/svg">
<g id="seafood 1">
<path id="Vector" d="M46.1072 13.7327C46.0737 13.5594 45.9801 13.4034 45.8429 13.2923C45.7057 13.1812 45.5337 13.122 45.3572 13.1252L40.9322 12.9827L39.3572 8.84271C39.2961 8.68407 39.1829 8.55089 39.0361 8.46502C38.8894 8.37914 38.7179 8.34567 38.5496 8.37008C38.3814 8.39449 38.2264 8.47533 38.1101 8.59936C37.9939 8.72339 37.9232 8.88324 37.9097 9.05271L37.4072 16.6802C33.6671 18.8056 30.0604 21.1574 26.6072 23.7227L26.4947 22.4552C26.4889 22.2944 26.4316 22.1398 26.3312 22.014C26.2309 21.8883 26.0927 21.7982 25.9372 21.757C25.7817 21.7158 25.617 21.7257 25.4676 21.7853C25.3181 21.8448 25.1918 21.9509 25.1072 22.0877C24.1385 23.446 23.4291 24.9716 23.0147 26.5877C21.4524 27.9237 20.021 29.4054 18.7397 31.0127C18.7023 31.054 18.6696 31.0992 18.6422 31.1477L18.3572 31.5002C16.8047 33.6677 16.4672 37.8077 16.3997 39.0002C16.3322 40.1927 16.3022 42.7502 16.8572 44.2502C16.8683 44.294 16.8834 44.3367 16.9022 44.3777V44.4677C17.0439 44.8385 17.2884 45.1611 17.6072 45.3977C18.0275 45.6562 18.5171 45.7792 19.0097 45.7502C19.3868 45.7447 19.763 45.7096 20.1347 45.6452C23.1347 45.1577 28.5872 42.8102 30.4622 40.2377L30.5372 40.1327C31.2919 39.0851 31.9832 37.9931 32.6072 36.8627L39.0572 33.2702C39.1954 33.1925 39.3055 33.0729 39.3715 32.9287C39.4375 32.7846 39.4561 32.6232 39.4247 32.4677C39.3938 32.3113 39.3139 32.1689 39.1966 32.061C39.0792 31.9531 38.9306 31.8854 38.7722 31.8677L35.0897 31.5002C36.8172 27.0332 38.074 22.3981 38.8397 17.6702L45.7022 14.5727C45.8546 14.499 45.9776 14.3758 46.0511 14.2233C46.1246 14.0708 46.1444 13.8979 46.1072 13.7327ZM18.4997 44.1752L20.1497 41.1002C20.2442 40.9252 20.2652 40.7198 20.2083 40.5292C20.1513 40.3386 20.021 40.1784 19.8459 40.084C19.6709 39.9895 19.4655 39.9684 19.2749 40.0254C19.0843 40.0823 18.9242 40.2127 18.8297 40.3877L17.9672 41.9927C17.7347 39.1727 18.1622 34.4927 19.6397 32.4302L19.7072 32.3402C21.8745 32.2902 23.9931 32.9874 25.7071 34.3149C27.4211 35.6424 28.6261 37.5192 29.1197 39.6302C26.7497 42.3752 19.5197 44.8202 18.4997 44.1752ZM36.2372 33.1127L33.8147 34.5002C34.0547 33.9902 34.2797 33.4802 34.5047 33.0002L36.2372 33.1127ZM31.4822 35.7602C31.1972 36.2852 30.9122 36.8027 30.6047 37.3127L30.1547 38.0627C29.4637 36.0895 28.2152 34.359 26.5605 33.081C24.9058 31.8031 22.916 31.0325 20.8322 30.8627C21.5227 30.0752 22.2536 29.3242 23.0222 28.6127C23.0503 28.7322 23.0853 28.8499 23.1272 28.9652C23.1978 29.1512 23.3394 29.3015 23.5208 29.3831C23.7023 29.4647 23.9087 29.4708 24.0947 29.4002C24.2807 29.3296 24.431 29.188 24.5126 29.0066C24.5941 28.8251 24.6003 28.6187 24.5297 28.4327C24.1772 27.5027 24.6272 26.1077 25.1972 24.9152L25.5422 28.8452C25.5591 29.0322 25.6455 29.2061 25.7844 29.3324C25.9232 29.4588 26.1044 29.5285 26.2922 29.5277H26.3597C26.5575 29.5105 26.7404 29.4156 26.8684 29.2638C26.9963 29.1119 27.0588 28.9156 27.0422 28.7177L26.7497 25.5002C30.056 22.9789 33.5151 20.6645 37.1072 18.5702C36.5522 21.7502 34.9172 29.3102 31.4822 35.7602ZM38.9822 15.9377L39.2222 12.5702L39.7547 13.9802C39.8076 14.1177 39.8999 14.2365 40.0199 14.3218C40.1399 14.4072 40.2825 14.4553 40.4297 14.4602L42.1322 14.5202L38.9822 15.9377Z" fill="#3399FF"/>
<path id="Vector_2" d="M25.5225 40.8136C25.7636 40.4768 25.686 40.0083 25.3492 39.7672C25.0124 39.5261 24.5439 39.6036 24.3028 39.9404C24.0617 40.2773 24.1392 40.7458 24.4761 40.9869C24.8129 41.228 25.2814 41.1504 25.5225 40.8136Z" fill="#3399FF"/>
<path id="Vector_3" d="M19.3172 18.4726C19.7399 18.405 20.1529 18.2866 20.5472 18.1201C21.9289 18.2814 23.3187 18.364 24.7097 18.3676C28.6322 18.3676 33.4772 17.6176 34.4597 14.1601C36.2972 7.32014 29.7347 3.39764 26.0072 2.25014C25.9087 2.22158 25.8056 2.21269 25.7037 2.224C25.6017 2.2353 25.503 2.26657 25.4132 2.31601C25.2318 2.41588 25.0974 2.58373 25.0397 2.78264C24.9821 2.98155 25.0058 3.19523 25.1056 3.37667C25.2055 3.55812 25.3733 3.69245 25.5722 3.75014C25.9547 3.86264 34.9247 6.66014 32.9822 13.8001C32.5022 15.5551 30.3647 16.3576 27.9872 16.6876C28.8307 16.2823 29.5721 15.6923 30.1563 14.9613C30.7406 14.2303 31.1528 13.3772 31.3622 12.4651C31.5198 11.8172 31.5344 11.1428 31.4049 10.4887C31.2753 9.8346 31.0049 9.21659 30.6122 8.67764C28.2197 5.25014 21.4847 4.36514 21.1997 4.32764C21.0029 4.30433 20.8049 4.35988 20.6489 4.48214C20.4929 4.60441 20.3916 4.78345 20.3672 4.98014C20.3439 5.17696 20.3995 5.37501 20.5217 5.531C20.644 5.68699 20.823 5.78825 21.0197 5.81264C21.0797 5.81264 27.3722 6.62264 29.4047 9.49514C29.673 9.86467 29.8564 10.2888 29.942 10.7374C30.0275 11.1859 30.0131 11.6478 29.8997 12.0901C29.1497 15.3976 25.3997 16.3051 22.7147 16.5226C23.095 16.0684 23.3966 15.5538 23.6072 15.0001L25.6472 9.75014C25.6968 9.62641 25.7125 9.4917 25.6928 9.35987C25.673 9.22805 25.6184 9.10388 25.5347 9.00014C25.4538 8.89788 25.3476 8.81851 25.2266 8.76984C25.1056 8.72118 24.974 8.70491 24.8447 8.72264L17.5322 9.75014C16.3354 9.92364 15.1577 10.2099 14.0147 10.6051L13.1072 10.9651C11.2056 11.706 9.43356 12.7439 7.85724 14.0401H7.81974L7.76724 14.0776C7.29619 14.4852 6.85037 14.921 6.43224 15.3826C5.44864 16.4296 4.62706 17.6177 3.99474 18.9076C3.97162 18.9512 3.95157 18.9963 3.93474 19.0426C3.12845 20.7491 2.67684 22.6015 2.60724 24.4876V24.5251C2.47224 28.2751 3.69474 32.5276 6.24474 37.0726C6.31056 40.0927 7.29126 43.0218 9.05724 45.4726C9.12783 45.5597 9.21702 45.6298 9.31825 45.6778C9.41949 45.7258 9.53019 45.7505 9.64224 45.7501C9.7426 45.7483 9.84175 45.7279 9.93474 45.6901C10.0868 45.6257 10.2134 45.5128 10.2947 45.3691C10.3761 45.2253 10.4077 45.0587 10.3847 44.8951L9.88224 41.3101C11.2315 41.7037 12.601 42.0241 13.9847 42.2701C14.155 42.3017 14.3309 42.2734 14.4827 42.19C14.6344 42.1066 14.7526 41.9733 14.8172 41.8126C14.882 41.6518 14.889 41.4734 14.837 41.3079C14.785 41.1425 14.6773 41.0001 14.5322 40.9051L7.67724 36.4051C7.30481 33.9884 7.22925 31.5352 7.45224 29.1001L8.35974 28.9201L8.97474 29.8126C9.02982 29.8952 9.10075 29.966 9.18341 30.021C9.26607 30.076 9.35881 30.114 9.45627 30.1328C9.55373 30.1517 9.65396 30.151 9.75115 30.1308C9.84834 30.1106 9.94056 30.0714 10.0225 30.0153C10.1044 29.9592 10.1743 29.8874 10.2283 29.8041C10.2822 29.7207 10.3191 29.6275 10.3367 29.5299C10.3544 29.4322 10.3525 29.332 10.3311 29.235C10.3097 29.1381 10.2693 29.0463 10.2122 28.9651L9.35724 27.6751C9.27577 27.5561 9.16168 27.463 9.02866 27.4071C8.89563 27.3513 8.74931 27.3349 8.60724 27.3601L7.70724 27.5251C7.8667 26.7228 8.1002 25.9369 8.40474 25.1776H9.35724L10.7447 26.2501C10.9039 26.3705 11.1043 26.4227 11.3019 26.3953C11.4995 26.3678 11.6781 26.263 11.7985 26.1039C11.9188 25.9448 11.971 25.7443 11.9436 25.5467C11.9162 25.3491 11.8114 25.1705 11.6522 25.0501L10.0622 23.8501C9.92847 23.7549 9.76892 23.7026 9.60474 23.7001H9.16224C9.8539 22.561 10.7982 21.5961 11.9222 20.8801L12.8447 21.6301L13.6697 22.8301C13.7248 22.9127 13.7957 22.9835 13.8784 23.0385C13.9611 23.0935 14.0538 23.1315 14.1513 23.1503C14.2487 23.1692 14.349 23.1685 14.4462 23.1483C14.5433 23.1281 14.6356 23.0889 14.7175 23.0328C14.7994 22.9767 14.8693 22.9049 14.9233 22.8216C14.9772 22.7382 15.0141 22.645 15.0317 22.5473C15.0494 22.4497 15.0475 22.3495 15.0261 22.2525C15.0047 22.1556 14.9643 22.0638 14.9072 21.9826L14.0222 20.6251C13.9785 20.5624 13.9253 20.5068 13.8647 20.4601L13.3472 20.0551C14.178 19.6733 15.0415 19.3671 15.9272 19.1401H16.0772C16.8947 18.9301 17.7647 18.7576 18.7547 18.6001L19.3172 18.4726ZM4.10724 24.3976C4.15634 23.4853 4.2996 22.5805 4.53474 21.6976C5.07988 22.888 5.91864 23.9204 6.97224 24.6976C6.64092 25.519 6.38976 26.3705 6.22224 27.2401C5.25555 26.5187 4.52048 25.5308 4.10724 24.3976ZM5.85474 32.8651C5.11546 31.1546 4.59388 29.3581 4.30224 27.5176C4.7931 28.0487 5.3561 28.5082 5.97474 28.8826C5.83047 30.2049 5.79035 31.5365 5.85474 32.8651ZM10.1747 39.8326C9.91198 39.7645 9.65968 39.6611 9.42474 39.5251C9.30614 39.4362 9.16386 39.3845 9.01586 39.3764C8.86786 39.3683 8.72078 39.4042 8.59318 39.4796C8.46559 39.5551 8.36321 39.6666 8.29897 39.8002C8.23473 39.9338 8.21151 40.0834 8.23224 40.2301C8.06313 39.589 7.93537 38.9377 7.84974 38.2801L10.1747 39.8326ZM7.63974 23.3326C6.43108 22.3575 5.62894 20.9671 5.38974 19.4326C5.94295 18.3357 6.6529 17.3251 7.49724 16.4326C7.59724 16.3276 7.69474 16.2301 7.78974 16.1401C8.29243 17.6778 9.26254 19.0202 10.5647 19.9801C9.35826 20.8663 8.35998 22.0054 7.63974 23.3176V23.3326ZM11.9747 19.0876C10.5503 18.2341 9.52268 16.8504 9.11724 15.2401C9.11724 15.1651 9.11724 15.0901 9.07224 15.0151C10.3193 14.0191 11.6972 13.199 13.1672 12.5776C12.9303 14.2542 13.2519 15.9621 14.0822 17.4376C14.0822 17.4901 14.2697 17.7301 14.4722 18.0226C13.6082 18.2891 12.7718 18.6382 11.9747 19.0651V19.0876ZM16.0247 17.5876C15.7697 17.2501 15.4847 16.8376 15.3872 16.6651C15.0051 15.9981 14.7507 15.2655 14.6372 14.5051C14.5235 13.6966 14.5694 12.8736 14.7722 12.0826V11.9701C15.736 11.6413 16.7276 11.4003 17.7347 11.2501L23.7347 10.4176L22.1597 14.4826C21.9361 15.0746 21.5703 15.6026 21.0947 16.0201C20.8259 16.2598 20.5256 16.4617 20.2022 16.6201C20.1593 16.6298 20.1185 16.6476 20.0822 16.6726C19.7754 16.8058 19.4528 16.8991 19.1222 16.9501L18.5372 17.0476C17.6072 17.2501 16.7897 17.3851 16.0247 17.5726V17.5876Z" fill="#3399FF"/>
<path id="Vector_4" d="M20.0794 13.0233C20.4651 12.9695 20.7341 12.6133 20.6804 12.2277C20.6266 11.8421 20.2704 11.573 19.8848 11.6268C19.4991 11.6805 19.2301 12.0367 19.2839 12.4224C19.3376 12.808 19.6938 13.077 20.0794 13.0233Z" fill="#3399FF"/>
</g>
</svg>
