<svg width="48" height="48" viewBox="0 0 48 48" fill="none" xmlns="http://www.w3.org/2000/svg">
<g id="Group">
<g id="Vector">
<mask id="path-1-inside-1_199_281" fill="white">
<path d="M47.1787 26.9618C47.1787 23.6963 45.5955 20.5777 42.9435 18.6203C42.4027 18.2197 41.7322 18 41.0565 18C40.2105 18 39.4177 18.3383 38.8357 18.9135C38.727 18.8228 38.628 18.723 38.5155 18.6368C38.0992 18.3188 37.5997 18.1297 37.0867 18.0518L37.4175 14.415C37.425 14.328 37.4287 14.2403 37.4287 14.1525C37.4287 12.552 36.1267 11.25 34.5262 11.25H34.3312C32.7307 11.25 31.4287 12.552 31.4287 14.1525C31.4287 14.2403 31.4325 14.328 31.4407 14.4158L31.773 18.0682C31.2975 18.1582 30.8377 18.342 30.4492 18.6315C30.315 18.732 30.1957 18.8475 30.0667 18.9533C30 18.8843 29.9295 18.8197 29.8567 18.7575C29.8995 18.5077 29.9287 18.255 29.9287 18C29.9287 17.0475 29.6317 16.1362 29.0812 15.375C29.6317 14.6138 29.9287 13.7032 29.9287 12.75C29.9287 10.182 27.756 8.10075 25.167 8.25825C24.6855 6.87825 23.5627 5.838 22.1827 5.43675C21.2692 4.2975 19.8922 3.66525 18.417 3.75825C17.796 1.9785 16.1145 0.75 14.1787 0.75C12.555 0.75 11.0767 1.6185 10.2802 3.00225C8.29421 3.069 6.57746 4.47075 6.08546 6.38025C3.76346 7.2465 2.17871 9.49425 2.17871 12C2.17871 14.0092 3.16721 15.846 4.80296 16.956C4.55621 17.5192 4.42871 18.1283 4.42871 18.75C4.42871 20.1 5.02871 21.3548 6.05846 22.2045C5.97221 22.5525 5.92871 22.9028 5.92871 23.25C5.92871 25.548 7.66121 27.45 9.88871 27.7178L11.5477 32.364C10.698 32.9902 9.97421 33.774 9.41696 34.674L5.48771 33.801C5.33846 33.7665 5.18471 33.75 5.03021 33.75C3.87146 33.75 2.92871 34.6927 2.92871 35.8515V36.1485C2.92871 36.3585 2.96921 36.558 3.02696 36.75H2.92871C1.68821 36.75 0.678711 37.7595 0.678711 39C0.678711 40.2405 1.68821 41.25 2.92871 41.25H3.02696C2.96921 41.442 2.92871 41.6415 2.92871 41.8515V42.1485C2.92871 43.3073 3.87146 44.25 5.03021 44.25C5.18471 44.25 5.33846 44.2335 5.48621 44.1997L9.41696 43.326C10.8727 45.6765 13.467 47.25 16.4287 47.25H16.605C17.022 47.25 17.4442 47.2178 17.859 47.154L43.5772 43.1978C45.6637 42.876 47.1787 41.1113 47.1787 39C47.1787 37.3117 46.2015 35.859 44.7465 35.1742C46.3005 33.318 47.1787 30.963 47.1787 28.5382V26.9618ZM37.6035 19.8285C39.8422 21.54 41.1787 24.2663 41.1787 27.123V29.8778C41.1787 31.4153 40.7955 32.9205 40.0732 34.2638L34.059 33.3382C33.8115 32.25 33.6787 31.1385 33.6787 30.0225V26.9775C33.6787 26.2215 33.7545 25.4663 33.8692 24.7178C34.053 24.7335 34.236 24.75 34.4287 24.75C36.567 24.75 38.1787 23.7825 38.1787 22.5C38.1787 21.792 37.689 21.1635 36.8407 20.751L36.951 19.5375C37.185 19.5847 37.41 19.6793 37.6035 19.8285ZM34.3312 12.75H34.527C35.3002 12.75 35.9295 13.3793 35.9295 14.1525C35.9295 14.1953 35.928 14.238 35.9235 14.28L35.2425 21.7703L35.8147 21.954C36.4717 22.164 36.6787 22.4408 36.6787 22.5C36.6787 22.6868 35.8807 23.25 34.4287 23.25C32.9767 23.25 32.1787 22.6868 32.1787 22.5C32.1787 22.4408 32.3857 22.164 33.0427 21.9533L33.615 21.7695L32.934 14.28C32.9302 14.2373 32.9287 14.1945 32.9287 14.1525C32.9287 13.3793 33.558 12.75 34.3312 12.75ZM31.9087 19.5623L32.0167 20.751C31.1685 21.1635 30.6787 21.792 30.6787 22.5C30.6787 23.3265 31.353 24.0173 32.4007 24.4072C32.2665 25.2585 32.1787 26.118 32.1787 26.9775V30.0225C32.1787 31.053 32.2777 32.082 32.4697 33.0938L28.0485 32.4135C27.8077 31.5892 27.6787 30.7395 27.6787 29.877V27.1222C27.6787 24.27 29.0497 21.5445 31.3462 19.833C31.5135 19.7085 31.7062 19.617 31.9087 19.5623ZM23.8035 31.7603C23.3962 30.7297 23.1787 29.6505 23.1787 28.5382V26.961C23.1787 24.1695 24.5347 21.5025 26.805 19.8255C27.09 19.6155 27.444 19.5 27.801 19.5C28.254 19.5 28.671 19.6822 28.9762 19.9875C27.2077 21.9255 26.1787 24.471 26.1787 27.123V29.8778C26.1787 30.651 26.271 31.416 26.4382 32.166L23.8035 31.7603ZM23.874 9.22575L24.0105 9.9975L24.7755 9.82725C25.008 9.7755 25.2217 9.75 25.4287 9.75C27.0832 9.75 28.4287 11.0955 28.4287 12.75C28.4287 13.5382 28.1227 14.2837 27.5677 14.8492L27.0517 15.375L27.5677 15.9008C28.1227 16.4663 28.4287 17.2118 28.4287 18C28.4287 18.0225 28.4242 18.045 28.4242 18.0682C28.221 18.0278 28.014 18 27.801 18C27.1252 18 26.4547 18.2197 25.914 18.6195C24.549 19.6268 23.4742 20.9445 22.7452 22.4288C22.461 21.5438 22.1625 20.6962 21.855 19.8915C22.5487 16.227 25.122 14.106 25.1482 14.0842L24.6787 13.5L24.21 12.9142C24.1057 12.9975 22.077 14.6543 20.9377 17.643C19.377 14.0595 17.904 11.7413 17.8095 11.5942L16.5472 12.4058C16.5675 12.4365 17.7112 14.2357 19.0425 17.1C16.7992 16.2555 14.25 16.4887 14.1037 16.5037L14.253 17.9963C15.381 17.883 18.576 17.9377 20.0685 19.461C20.5942 20.7533 21.1125 22.17 21.57 23.688C19.29 22.5187 16.5697 22.5 16.4287 22.5V24C16.464 24 19.803 24.0225 21.7792 25.5938C21.7177 26.0452 21.6787 26.5013 21.6787 26.9618V28.539C21.6787 29.5522 21.8347 30.543 22.1242 31.503L17.859 30.8468C17.634 30.8123 17.4067 30.789 17.1787 30.7725C15.5242 30.7725 14.1787 29.4165 14.1787 27.7507C14.1787 27.4012 14.2485 27.0427 14.385 26.6835L14.604 26.1097L14.0842 25.7812C13.2045 25.2248 12.6787 24.279 12.6787 23.25C12.6787 22.6597 12.852 22.0875 13.1797 21.594L13.647 20.892L12.8955 20.5103C11.3737 19.7362 10.4287 18.2003 10.4287 16.5C10.4287 14.5042 11.7697 12.7268 13.6905 12.177L14.1562 12.0435L14.226 11.5642C14.4397 10.1025 15.7095 9 17.1787 9C17.2065 9 17.2335 9.006 17.2605 9.00975C17.313 9.01725 17.3662 9.024 17.4195 9.02775L17.9572 9.07125L18.1687 8.57475C18.642 7.46625 19.725 6.75 20.9287 6.75C22.3822 6.75 23.6205 7.791 23.874 9.22575ZM10.9575 26.25H10.4287C8.77421 26.25 7.42871 24.9045 7.42871 23.25C7.42871 22.8997 7.49846 22.5413 7.63496 22.1835L7.85471 21.6097L7.33496 21.2812C6.45446 20.7248 5.92871 19.779 5.92871 18.75C5.92871 18.1597 6.10196 17.5875 6.42971 17.094L6.89696 16.392L6.14546 16.0103C4.62371 15.2362 3.67871 13.7002 3.67871 12C3.67871 10.0042 5.01971 8.22675 6.93971 7.677L7.40546 7.5435L7.47521 7.06425C7.68971 5.6025 8.95946 4.5 10.4287 4.5C10.4572 4.5 10.485 4.506 10.5127 4.50975C10.5637 4.5165 10.6147 4.52325 10.6672 4.52775L11.2072 4.57275L11.4195 4.074C11.892 2.96625 12.975 2.25 14.1787 2.25C15.6322 2.25 16.8705 3.291 17.124 4.72575L17.2605 5.4975L18.0255 5.32725C18.258 5.2755 18.4717 5.25 18.6787 5.25C19.0237 5.25 19.3515 5.32575 19.665 5.43525C18.5625 5.75775 17.613 6.48975 17.0302 7.50225C15.0442 7.569 13.3275 8.97075 12.8355 10.8802C10.5135 11.7465 8.92871 13.9943 8.92871 16.5C8.92871 18.5093 9.91721 20.346 11.553 21.456C11.3062 22.0192 11.1787 22.6283 11.1787 23.25C11.1787 24.6 11.7787 25.8547 12.8085 26.7052C12.7222 27.0532 12.6787 27.4028 12.6787 27.75C12.6787 29.0677 13.2457 30.252 14.1435 31.0785C13.698 31.2075 13.2697 31.3748 12.8587 31.5735L10.9575 26.25ZM4.42871 36.1485V35.8515C4.42871 35.475 4.79321 35.1847 5.16146 35.2643L8.73071 36.0578C8.64371 36.2842 8.56571 36.5145 8.49896 36.75H5.03021C4.69871 36.75 4.42871 36.48 4.42871 36.1485ZM2.17871 39C2.17871 38.5868 2.51546 38.25 2.92871 38.25H5.03021H8.21621C8.19446 38.4975 8.17871 38.7465 8.17871 39C8.17871 39.2535 8.19446 39.5025 8.21696 39.75H5.03021H2.92871C2.51546 39.75 2.17871 39.4132 2.17871 39ZM5.15996 42.7357C4.80446 42.8122 4.42871 42.5243 4.42871 42.1485V41.8515C4.42871 41.52 4.69871 41.25 5.03021 41.25H8.49821C8.56496 41.4855 8.64371 41.7158 8.72996 41.9422L5.15996 42.7357ZM45.6787 39C45.6787 40.3657 44.6992 41.5072 43.35 41.715L17.6325 45.6712C17.292 45.7238 16.9462 45.75 16.605 45.75H16.4287C12.7072 45.75 9.67871 42.7215 9.67871 39C9.67871 35.2785 12.7072 32.25 16.4287 32.25H16.605C16.9462 32.25 17.292 32.2763 17.6317 32.328L43.3492 36.2843C44.6992 36.4928 45.6787 37.6343 45.6787 39ZM45.6787 28.5382C45.6787 30.8452 44.745 33.0772 43.1205 34.7318L41.6302 34.5023C42.315 33.0637 42.6787 31.4865 42.6787 29.877V27.1222C42.6787 24.4567 41.6632 21.8985 39.9187 19.9575C40.2217 19.6718 40.6237 19.5 41.0565 19.5C41.4142 19.5 41.7675 19.6155 42.0525 19.827C44.3227 21.5025 45.6787 24.1703 45.6787 26.9618V28.5382Z"/>
</mask>
<path d="M47.1787 26.9618C47.1787 23.6963 45.5955 20.5777 42.9435 18.6203C42.4027 18.2197 41.7322 18 41.0565 18C40.2105 18 39.4177 18.3383 38.8357 18.9135C38.727 18.8228 38.628 18.723 38.5155 18.6368C38.0992 18.3188 37.5997 18.1297 37.0867 18.0518L37.4175 14.415C37.425 14.328 37.4287 14.2403 37.4287 14.1525C37.4287 12.552 36.1267 11.25 34.5262 11.25H34.3312C32.7307 11.25 31.4287 12.552 31.4287 14.1525C31.4287 14.2403 31.4325 14.328 31.4407 14.4158L31.773 18.0682C31.2975 18.1582 30.8377 18.342 30.4492 18.6315C30.315 18.732 30.1957 18.8475 30.0667 18.9533C30 18.8843 29.9295 18.8197 29.8567 18.7575C29.8995 18.5077 29.9287 18.255 29.9287 18C29.9287 17.0475 29.6317 16.1362 29.0812 15.375C29.6317 14.6138 29.9287 13.7032 29.9287 12.75C29.9287 10.182 27.756 8.10075 25.167 8.25825C24.6855 6.87825 23.5627 5.838 22.1827 5.43675C21.2692 4.2975 19.8922 3.66525 18.417 3.75825C17.796 1.9785 16.1145 0.75 14.1787 0.75C12.555 0.75 11.0767 1.6185 10.2802 3.00225C8.29421 3.069 6.57746 4.47075 6.08546 6.38025C3.76346 7.2465 2.17871 9.49425 2.17871 12C2.17871 14.0092 3.16721 15.846 4.80296 16.956C4.55621 17.5192 4.42871 18.1283 4.42871 18.75C4.42871 20.1 5.02871 21.3548 6.05846 22.2045C5.97221 22.5525 5.92871 22.9028 5.92871 23.25C5.92871 25.548 7.66121 27.45 9.88871 27.7178L11.5477 32.364C10.698 32.9902 9.97421 33.774 9.41696 34.674L5.48771 33.801C5.33846 33.7665 5.18471 33.75 5.03021 33.75C3.87146 33.75 2.92871 34.6927 2.92871 35.8515V36.1485C2.92871 36.3585 2.96921 36.558 3.02696 36.75H2.92871C1.68821 36.75 0.678711 37.7595 0.678711 39C0.678711 40.2405 1.68821 41.25 2.92871 41.25H3.02696C2.96921 41.442 2.92871 41.6415 2.92871 41.8515V42.1485C2.92871 43.3073 3.87146 44.25 5.03021 44.25C5.18471 44.25 5.33846 44.2335 5.48621 44.1997L9.41696 43.326C10.8727 45.6765 13.467 47.25 16.4287 47.25H16.605C17.022 47.25 17.4442 47.2178 17.859 47.154L43.5772 43.1978C45.6637 42.876 47.1787 41.1113 47.1787 39C47.1787 37.3117 46.2015 35.859 44.7465 35.1742C46.3005 33.318 47.1787 30.963 47.1787 28.5382V26.9618ZM37.6035 19.8285C39.8422 21.54 41.1787 24.2663 41.1787 27.123V29.8778C41.1787 31.4153 40.7955 32.9205 40.0732 34.2638L34.059 33.3382C33.8115 32.25 33.6787 31.1385 33.6787 30.0225V26.9775C33.6787 26.2215 33.7545 25.4663 33.8692 24.7178C34.053 24.7335 34.236 24.75 34.4287 24.75C36.567 24.75 38.1787 23.7825 38.1787 22.5C38.1787 21.792 37.689 21.1635 36.8407 20.751L36.951 19.5375C37.185 19.5847 37.41 19.6793 37.6035 19.8285ZM34.3312 12.75H34.527C35.3002 12.75 35.9295 13.3793 35.9295 14.1525C35.9295 14.1953 35.928 14.238 35.9235 14.28L35.2425 21.7703L35.8147 21.954C36.4717 22.164 36.6787 22.4408 36.6787 22.5C36.6787 22.6868 35.8807 23.25 34.4287 23.25C32.9767 23.25 32.1787 22.6868 32.1787 22.5C32.1787 22.4408 32.3857 22.164 33.0427 21.9533L33.615 21.7695L32.934 14.28C32.9302 14.2373 32.9287 14.1945 32.9287 14.1525C32.9287 13.3793 33.558 12.75 34.3312 12.75ZM31.9087 19.5623L32.0167 20.751C31.1685 21.1635 30.6787 21.792 30.6787 22.5C30.6787 23.3265 31.353 24.0173 32.4007 24.4072C32.2665 25.2585 32.1787 26.118 32.1787 26.9775V30.0225C32.1787 31.053 32.2777 32.082 32.4697 33.0938L28.0485 32.4135C27.8077 31.5892 27.6787 30.7395 27.6787 29.877V27.1222C27.6787 24.27 29.0497 21.5445 31.3462 19.833C31.5135 19.7085 31.7062 19.617 31.9087 19.5623ZM23.8035 31.7603C23.3962 30.7297 23.1787 29.6505 23.1787 28.5382V26.961C23.1787 24.1695 24.5347 21.5025 26.805 19.8255C27.09 19.6155 27.444 19.5 27.801 19.5C28.254 19.5 28.671 19.6822 28.9762 19.9875C27.2077 21.9255 26.1787 24.471 26.1787 27.123V29.8778C26.1787 30.651 26.271 31.416 26.4382 32.166L23.8035 31.7603ZM23.874 9.22575L24.0105 9.9975L24.7755 9.82725C25.008 9.7755 25.2217 9.75 25.4287 9.75C27.0832 9.75 28.4287 11.0955 28.4287 12.75C28.4287 13.5382 28.1227 14.2837 27.5677 14.8492L27.0517 15.375L27.5677 15.9008C28.1227 16.4663 28.4287 17.2118 28.4287 18C28.4287 18.0225 28.4242 18.045 28.4242 18.0682C28.221 18.0278 28.014 18 27.801 18C27.1252 18 26.4547 18.2197 25.914 18.6195C24.549 19.6268 23.4742 20.9445 22.7452 22.4288C22.461 21.5438 22.1625 20.6962 21.855 19.8915C22.5487 16.227 25.122 14.106 25.1482 14.0842L24.6787 13.5L24.21 12.9142C24.1057 12.9975 22.077 14.6543 20.9377 17.643C19.377 14.0595 17.904 11.7413 17.8095 11.5942L16.5472 12.4058C16.5675 12.4365 17.7112 14.2357 19.0425 17.1C16.7992 16.2555 14.25 16.4887 14.1037 16.5037L14.253 17.9963C15.381 17.883 18.576 17.9377 20.0685 19.461C20.5942 20.7533 21.1125 22.17 21.57 23.688C19.29 22.5187 16.5697 22.5 16.4287 22.5V24C16.464 24 19.803 24.0225 21.7792 25.5938C21.7177 26.0452 21.6787 26.5013 21.6787 26.9618V28.539C21.6787 29.5522 21.8347 30.543 22.1242 31.503L17.859 30.8468C17.634 30.8123 17.4067 30.789 17.1787 30.7725C15.5242 30.7725 14.1787 29.4165 14.1787 27.7507C14.1787 27.4012 14.2485 27.0427 14.385 26.6835L14.604 26.1097L14.0842 25.7812C13.2045 25.2248 12.6787 24.279 12.6787 23.25C12.6787 22.6597 12.852 22.0875 13.1797 21.594L13.647 20.892L12.8955 20.5103C11.3737 19.7362 10.4287 18.2003 10.4287 16.5C10.4287 14.5042 11.7697 12.7268 13.6905 12.177L14.1562 12.0435L14.226 11.5642C14.4397 10.1025 15.7095 9 17.1787 9C17.2065 9 17.2335 9.006 17.2605 9.00975C17.313 9.01725 17.3662 9.024 17.4195 9.02775L17.9572 9.07125L18.1687 8.57475C18.642 7.46625 19.725 6.75 20.9287 6.75C22.3822 6.75 23.6205 7.791 23.874 9.22575ZM10.9575 26.25H10.4287C8.77421 26.25 7.42871 24.9045 7.42871 23.25C7.42871 22.8997 7.49846 22.5413 7.63496 22.1835L7.85471 21.6097L7.33496 21.2812C6.45446 20.7248 5.92871 19.779 5.92871 18.75C5.92871 18.1597 6.10196 17.5875 6.42971 17.094L6.89696 16.392L6.14546 16.0103C4.62371 15.2362 3.67871 13.7002 3.67871 12C3.67871 10.0042 5.01971 8.22675 6.93971 7.677L7.40546 7.5435L7.47521 7.06425C7.68971 5.6025 8.95946 4.5 10.4287 4.5C10.4572 4.5 10.485 4.506 10.5127 4.50975C10.5637 4.5165 10.6147 4.52325 10.6672 4.52775L11.2072 4.57275L11.4195 4.074C11.892 2.96625 12.975 2.25 14.1787 2.25C15.6322 2.25 16.8705 3.291 17.124 4.72575L17.2605 5.4975L18.0255 5.32725C18.258 5.2755 18.4717 5.25 18.6787 5.25C19.0237 5.25 19.3515 5.32575 19.665 5.43525C18.5625 5.75775 17.613 6.48975 17.0302 7.50225C15.0442 7.569 13.3275 8.97075 12.8355 10.8802C10.5135 11.7465 8.92871 13.9943 8.92871 16.5C8.92871 18.5093 9.91721 20.346 11.553 21.456C11.3062 22.0192 11.1787 22.6283 11.1787 23.25C11.1787 24.6 11.7787 25.8547 12.8085 26.7052C12.7222 27.0532 12.6787 27.4028 12.6787 27.75C12.6787 29.0677 13.2457 30.252 14.1435 31.0785C13.698 31.2075 13.2697 31.3748 12.8587 31.5735L10.9575 26.25ZM4.42871 36.1485V35.8515C4.42871 35.475 4.79321 35.1847 5.16146 35.2643L8.73071 36.0578C8.64371 36.2842 8.56571 36.5145 8.49896 36.75H5.03021C4.69871 36.75 4.42871 36.48 4.42871 36.1485ZM2.17871 39C2.17871 38.5868 2.51546 38.25 2.92871 38.25H5.03021H8.21621C8.19446 38.4975 8.17871 38.7465 8.17871 39C8.17871 39.2535 8.19446 39.5025 8.21696 39.75H5.03021H2.92871C2.51546 39.75 2.17871 39.4132 2.17871 39ZM5.15996 42.7357C4.80446 42.8122 4.42871 42.5243 4.42871 42.1485V41.8515C4.42871 41.52 4.69871 41.25 5.03021 41.25H8.49821C8.56496 41.4855 8.64371 41.7158 8.72996 41.9422L5.15996 42.7357ZM45.6787 39C45.6787 40.3657 44.6992 41.5072 43.35 41.715L17.6325 45.6712C17.292 45.7238 16.9462 45.75 16.605 45.75H16.4287C12.7072 45.75 9.67871 42.7215 9.67871 39C9.67871 35.2785 12.7072 32.25 16.4287 32.25H16.605C16.9462 32.25 17.292 32.2763 17.6317 32.328L43.3492 36.2843C44.6992 36.4928 45.6787 37.6343 45.6787 39ZM45.6787 28.5382C45.6787 30.8452 44.745 33.0772 43.1205 34.7318L41.6302 34.5023C42.315 33.0637 42.6787 31.4865 42.6787 29.877V27.1222C42.6787 24.4567 41.6632 21.8985 39.9187 19.9575C40.2217 19.6718 40.6237 19.5 41.0565 19.5C41.4142 19.5 41.7675 19.6155 42.0525 19.827C44.3227 21.5025 45.6787 24.1703 45.6787 26.9618V28.5382Z" stroke="#3A9E20" stroke-width="16" mask="url(#path-1-inside-1_199_281)"/>
</g>
<path id="Vector_2" d="M15.6787 35.25H17.1787V42.75H15.6787V35.25Z" fill="#3A9E20"/>
<path id="Vector_3" d="M21.6787 35.25H23.1787V42.75H21.6787V35.25Z" fill="#3A9E20"/>
<path id="Vector_4" d="M27.6787 35.25H29.1787V42.75H27.6787V35.25Z" fill="#3A9E20"/>
<path id="Vector_5" d="M33.6787 36.75H35.1787V41.25H33.6787V36.75Z" fill="#3A9E20"/>
<path id="Vector_6" d="M39.6787 37.5H41.1787V40.5H39.6787V37.5Z" fill="#3A9E20"/>
</g>
</svg>
