<svg width="38" height="44" viewBox="0 0 38 44" fill="none" xmlns="http://www.w3.org/2000/svg">
<g id="Layer_43">
<g id="Vector">
<mask id="path-1-inside-1_302_2920" fill="white">
<path d="M35.7965 37.975V6.145L37.604 1.26175C37.6865 1.02925 37.6565 0.775 37.514 0.57175C37.3715 0.37 37.1465 0.25 36.899 0.25H1.24403C0.996527 0.25 0.771527 0.37 0.629027 0.5725C0.486527 0.775 0.456527 1.03 0.539027 1.2625L2.34653 6.145V37.975L0.576528 42.7375C0.494028 42.97 0.524027 43.2243 0.666527 43.4275C0.809027 43.63 1.03403 43.75 1.28153 43.75H36.8615C37.109 43.75 37.334 43.63 37.4765 43.4275C37.619 43.2243 37.649 42.97 37.5665 42.7375L35.7965 37.975ZM2.32403 1.75H35.819L34.409 5.56C34.319 5.5225 3.82403 5.5225 3.73403 5.56L2.32403 1.75ZM34.2965 6.9775V37.75H3.84653V6.9775C3.90653 6.9925 34.2365 6.9925 34.2965 6.9775ZM2.36153 42.25L3.47903 39.25H34.664L35.7815 42.25H2.36153Z"/>
</mask>
<path d="M35.7965 37.975H27.7965V39.4135L28.2977 40.762L35.7965 37.975ZM35.7965 6.145L28.294 3.36799L27.7965 4.71194V6.145H35.7965ZM37.604 1.26175L45.1066 4.03876L45.1254 3.98802L45.1434 3.93703L37.604 1.26175ZM37.514 0.57175L44.0645 -4.02081L44.0565 -4.03223L44.0484 -4.04362L37.514 0.57175ZM0.539027 1.2625L-7.00039 3.93778L-6.98223 3.98896L-6.96338 4.03989L0.539027 1.2625ZM2.34653 6.145H10.3465V4.71173L9.84893 3.36761L2.34653 6.145ZM2.34653 37.975L9.84538 40.762L10.3465 39.4135V37.975H2.34653ZM0.576528 42.7375L-6.92232 39.9505L-6.94302 40.0062L-6.96289 40.0622L0.576528 42.7375ZM0.666527 43.4275L-5.88393 48.0201L-5.87592 48.0314L0.666527 43.4275ZM37.4765 43.4275L44.019 48.0315L44.027 48.0201L37.4765 43.4275ZM37.5665 42.7375L45.1059 40.0622L45.0861 40.0062L45.0654 39.9505L37.5665 42.7375ZM2.32403 1.75V-6.25H-9.16686L-5.17868 4.52659L2.32403 1.75ZM35.819 1.75L43.3217 4.52659L47.3099 -6.25H35.819V1.75ZM34.409 5.56L31.3321 12.9446L39.0208 16.1482L41.9117 8.33659L34.409 5.56ZM3.73403 5.56L-3.76868 8.33659L-0.877749 16.1482L6.81095 12.9446L3.73403 5.56ZM34.2965 6.9775H42.2965V-3.26871L32.3562 -0.78364L34.2965 6.9775ZM34.2965 37.75V45.75H42.2965V37.75H34.2965ZM3.84653 37.75H-4.15347V45.75H3.84653V37.75ZM3.84653 6.9775L5.78681 -0.78364L-4.15347 -3.26871V6.9775H3.84653ZM2.36153 42.25L-5.13525 39.4575L-9.15547 50.25H2.36153V42.25ZM3.47903 39.25V31.25H-2.07798L-4.01775 36.4575L3.47903 39.25ZM34.664 39.25L42.1608 36.4575L40.221 31.25H34.664V39.25ZM35.7815 42.25V50.25H47.2985L43.2783 39.4575L35.7815 42.25ZM43.7965 37.975V6.145H27.7965V37.975H43.7965ZM43.2991 8.92201L45.1066 4.03876L30.1015 -1.51526L28.294 3.36799L43.2991 8.92201ZM45.1434 3.93703C46.0559 1.36544 45.7536 -1.61158 44.0645 -4.02081L30.9636 5.16431C29.5594 3.16158 29.3171 0.693058 30.0646 -1.41353L45.1434 3.93703ZM44.0484 -4.04362C42.4502 -6.30642 39.8194 -7.75 36.899 -7.75V8.25C34.4736 8.25 32.2929 7.04642 30.9796 5.18712L44.0484 -4.04362ZM36.899 -7.75H1.24403V8.25H36.899V-7.75ZM1.24403 -7.75C-1.67928 -7.75 -4.31473 -6.30328 -5.91342 -4.03145L7.17148 5.17645C5.85778 7.04328 3.67233 8.25 1.24403 8.25V-7.75ZM-5.91342 -4.03145C-7.61581 -1.61227 -7.91057 1.37275 -7.00039 3.93778L8.07845 -1.41278C8.82362 0.687251 8.58886 3.16227 7.17148 5.17645L-5.91342 -4.03145ZM-6.96338 4.03989L-5.15588 8.92239L9.84893 3.36761L8.04143 -1.51489L-6.96338 4.03989ZM-5.65347 6.145V37.975H10.3465V6.145H-5.65347ZM-5.15232 35.188L-6.92232 39.9505L8.07538 45.5245L9.84538 40.762L-5.15232 35.188ZM-6.96289 40.0622C-7.8754 42.6338 -7.57304 45.6108 -5.88392 48.0201L7.21697 38.8349C8.6211 40.8377 8.86346 43.3062 8.11595 45.4128L-6.96289 40.0622ZM-5.87592 48.0314C-4.27723 50.3033 -1.64178 51.75 1.28153 51.75V35.75C3.70983 35.75 5.89528 36.9567 7.20898 38.8236L-5.87592 48.0314ZM1.28153 51.75H36.8615V35.75H1.28153V51.75ZM36.8615 51.75C39.7848 51.75 42.4203 50.3033 44.019 48.0314L30.9341 38.8236C32.2478 36.9567 34.4332 35.75 36.8615 35.75V51.75ZM44.027 48.0201C45.7161 45.6108 46.0184 42.6338 45.1059 40.0622L30.0271 45.4128C29.2796 43.3062 29.5219 40.8377 30.9261 38.8349L44.027 48.0201ZM45.0654 39.9505L43.2954 35.188L28.2977 40.762L30.0677 45.5245L45.0654 39.9505ZM2.32403 9.75H35.819V-6.25H2.32403V9.75ZM28.3163 -1.02659L26.9063 2.78341L41.9117 8.33659L43.3217 4.52659L28.3163 -1.02659ZM37.486 -1.82462C36.9264 -2.03361 36.0869 -2.26211 35.8187 -2.31489C35.665 -2.34088 35.4118 -2.37704 35.3121 -2.38903C35.1262 -2.41021 34.9795 -2.42013 34.9263 -2.42363C34.8009 -2.43188 34.7 -2.43551 34.666 -2.43671C34.5799 -2.43976 34.5018 -2.4413 34.459 -2.44208C34.3608 -2.44387 34.2429 -2.44519 34.1225 -2.44627C33.8744 -2.4485 33.5267 -2.45046 33.1022 -2.45224C32.2492 -2.45579 31.0422 -2.45874 29.6038 -2.46108C26.7249 -2.46578 22.8971 -2.46813 19.0715 -2.46813C15.246 -2.46813 11.4181 -2.46578 8.53926 -2.46108C7.10088 -2.45874 5.89384 -2.45579 5.04086 -2.45224C4.6164 -2.45046 4.26863 -2.4485 4.02051 -2.44627C3.90017 -2.44519 3.78228 -2.44387 3.68406 -2.44208C3.64124 -2.4413 3.56313 -2.43976 3.47701 -2.43671C3.44303 -2.43551 3.34214 -2.43188 3.21675 -2.42363C3.16351 -2.42013 3.01688 -2.41021 2.83098 -2.38903C2.73127 -2.37704 2.47807 -2.34088 2.32438 -2.31489C2.05615 -2.26211 1.21662 -2.03361 0.657104 -1.82462L6.81095 12.9446C6.25179 13.1535 5.41284 13.3818 5.14542 13.4345C4.99255 13.4603 4.7404 13.4963 4.64196 13.5082C4.45861 13.529 4.31545 13.5387 4.2666 13.5419C4.14998 13.5496 4.06152 13.5526 4.04356 13.5533C3.98948 13.5552 3.95779 13.5556 3.97532 13.5553C3.99777 13.5549 4.05624 13.5541 4.16422 13.5531C4.37274 13.5512 4.68945 13.5494 5.10762 13.5476C5.93991 13.5442 7.13077 13.5412 8.56536 13.5389C11.4324 13.5342 15.2509 13.5319 19.0715 13.5319C22.8922 13.5319 26.7106 13.5342 29.5777 13.5389C31.0123 13.5412 32.2031 13.5442 33.0354 13.5476C33.4536 13.5494 33.7703 13.5512 33.9788 13.5531C34.0868 13.5541 34.1453 13.5549 34.1677 13.5553C34.1853 13.5556 34.1536 13.5552 34.0995 13.5533C34.0815 13.5526 33.9931 13.5496 33.8764 13.5419C33.8276 13.5387 33.6844 13.529 33.5011 13.5082C33.4027 13.4963 33.1505 13.4603 32.9976 13.4345C32.7302 13.3818 31.8913 13.1535 31.3321 12.9446L37.486 -1.82462ZM11.2367 2.78341L9.82673 -1.02659L-5.17868 4.52659L-3.76868 8.33659L11.2367 2.78341ZM26.2965 6.9775V37.75H42.2965V6.9775H26.2965ZM34.2965 29.75H3.84653V45.75H34.2965V29.75ZM11.8465 37.75V6.9775H-4.15347V37.75H11.8465ZM1.90624 14.7386C2.37507 14.841 3.01335 14.934 3.1781 14.9496C3.26169 14.9561 3.39557 14.9648 3.44629 14.9676C3.53632 14.9721 3.6074 14.9741 3.63035 14.9747C3.68809 14.9763 3.73599 14.9771 3.754 14.9773C3.79912 14.978 3.84499 14.9784 3.87955 14.9786C3.95432 14.9792 4.05344 14.9797 4.16862 14.9801C4.40213 14.9809 4.73737 14.9817 5.15622 14.9824C5.9956 14.9838 7.18879 14.985 8.61596 14.9859C11.4711 14.9878 15.2718 14.9888 19.0715 14.9888C22.8713 14.9888 26.6719 14.9878 29.5271 14.9859C30.9543 14.985 32.1475 14.9838 32.9868 14.9824C33.4057 14.9817 33.7409 14.9809 33.9744 14.9801C34.0896 14.9797 34.1887 14.9792 34.2635 14.9786C34.2981 14.9784 34.3439 14.978 34.389 14.9773C34.4071 14.9771 34.455 14.9763 34.5127 14.9747C34.5357 14.9741 34.6067 14.9721 34.6968 14.9676C34.7475 14.9648 34.8814 14.9561 34.965 14.9496C35.1297 14.934 35.768 14.841 36.2368 14.7386L32.3562 -0.78364C32.8248 -0.885961 33.4627 -0.9789 33.6267 -0.99438C33.7096 -1.0009 33.8426 -1.00955 33.8921 -1.0122C33.9798 -1.01662 34.0477 -1.01851 34.0665 -1.01904C34.116 -1.02042 34.152 -1.02091 34.1545 -1.02095C34.1686 -1.02116 34.1692 -1.0211 34.1446 -1.02092C34.1011 -1.02059 34.0265 -1.02021 33.9162 -1.01981C33.6988 -1.01902 33.3762 -1.01827 32.9599 -1.01757C32.1289 -1.01617 30.9422 -1.015 29.5166 -1.01406C26.6661 -1.01219 22.8693 -1.01125 19.0715 -1.01125C15.2738 -1.01125 11.4769 -1.01219 8.62647 -1.01406C7.20082 -1.015 6.01417 -1.01617 5.18316 -1.01757C4.76682 -1.01827 4.44423 -1.01902 4.22683 -1.01981C4.11656 -1.02021 4.04195 -1.02059 3.99842 -1.02092C3.97383 -1.0211 3.97441 -1.02116 3.98855 -1.02095C3.99108 -1.02091 4.02707 -1.02042 4.07654 -1.01904C4.09536 -1.01851 4.16321 -1.01662 4.25094 -1.0122C4.3005 -1.00955 4.43346 -1.0009 4.51635 -0.99438C4.6804 -0.9789 5.31821 -0.885961 5.78681 -0.78364L1.90624 14.7386ZM9.8583 45.0425L10.9758 42.0425L-4.01775 36.4575L-5.13525 39.4575L9.8583 45.0425ZM3.47903 47.25H34.664V31.25H3.47903V47.25ZM27.1672 42.0425L28.2847 45.0425L43.2783 39.4575L42.1608 36.4575L27.1672 42.0425ZM35.7815 34.25H2.36153V50.25H35.7815V34.25Z" fill="#3A9E20" mask="url(#path-1-inside-1_302_2920)"/>
</g>
<path id="Vector_2" d="M26.3388 9.85744C25.7163 9.54244 25.0263 9.37744 24.2988 9.37744C22.0113 9.37744 19.5738 10.9232 17.7888 13.4499C15.7413 11.9582 13.5513 11.5974 11.8038 12.4907C8.75883 14.0507 8.18133 18.7899 10.4838 23.2832C11.5563 25.3757 13.1013 27.0707 14.8338 28.0682C15.9063 28.6832 16.9713 28.9907 17.9763 28.9907C18.7038 28.9907 19.3863 28.8332 20.0163 28.5032C21.0138 28.0007 21.7788 27.1157 22.2363 25.9457C24.3513 25.1357 26.3613 23.1789 27.6588 20.6507C29.9238 16.2324 29.3313 11.3949 26.3388 9.85744ZM19.3338 27.1674C18.2988 27.6999 16.9638 27.5582 15.5838 26.7624C14.0988 25.9149 12.7563 24.4307 11.8188 22.5999C10.2513 19.5399 10.2288 16.1874 11.6013 14.5449C12.0213 16.7132 12.9813 19.7274 15.1638 21.3632C17.2788 22.9524 18.8988 25.3457 19.5138 27.0632C19.4538 27.0999 19.3938 27.1374 19.3338 27.1674ZM20.9388 25.1274C20.8706 25.3869 20.7513 25.6224 20.6388 25.8399C19.7088 23.8074 17.9313 21.5649 16.0638 20.1624C14.0613 18.6549 13.2663 15.5649 12.9663 13.6374C14.2713 13.2407 15.9213 13.7649 17.4738 15.1157C17.4813 15.1157 17.4963 15.1232 17.5038 15.1374C18.4788 15.9932 19.3488 17.1249 20.0088 18.4007C20.1963 18.7674 21.7668 21.9999 20.9388 25.1274ZM21.4788 18.0099C21.4338 17.9049 21.3888 17.8074 21.3363 17.7107C20.6988 16.4657 19.8738 15.3407 18.9438 14.4257C20.4438 12.2507 22.4988 10.8782 24.2988 10.8782C24.6063 10.8782 24.8988 10.9239 25.1763 11.0132C24.8688 12.9482 24.0738 16.0307 22.0713 17.5307C21.8763 17.6799 21.6738 17.8374 21.4788 18.0099ZM26.3238 19.9674C25.4013 21.7674 24.0963 23.2149 22.6863 24.0624C22.8363 22.6299 22.6263 21.0399 22.0863 19.4724C22.3863 19.1949 22.6863 18.9474 22.9788 18.7299C25.1463 17.0882 26.1213 14.0724 26.5413 11.9124C27.9138 13.5549 27.8913 16.9074 26.3238 19.9674Z" fill="#3A9E20"/>
<path id="Vector_3" d="M26.4365 31.75C26.4365 32.1625 26.099 32.5 25.6865 32.5H12.4565C12.0365 32.5 11.7065 32.1625 11.7065 31.75C11.7065 31.3375 12.0365 31 12.4565 31H25.6865C26.099 31 26.4365 31.3375 26.4365 31.75Z" fill="#3A9E20"/>
<path id="Vector_4" d="M26.4365 34.75C26.4365 35.1625 26.099 35.5 25.6865 35.5H12.4565C12.0365 35.5 11.7065 35.1625 11.7065 34.75C11.7065 34.3375 12.0365 34 12.4565 34H25.6865C26.099 34 26.4365 34.3375 26.4365 34.75Z" fill="#3A9E20"/>
</g>
</svg>
