<svg width="49" height="48" viewBox="0 0 49 48" fill="none" xmlns="http://www.w3.org/2000/svg">
<g id="fruits 1">
<g id="Vector">
<mask id="path-1-inside-1_302_2964" fill="white">
<path d="M46.5357 30H42.7857V25.5C42.7865 23.7488 42.4255 22.0164 41.7255 20.4113C41.0256 18.8061 40.0016 17.3628 38.7178 16.1718C39.7303 13.4625 42.491 11.0972 42.5201 11.0718C42.6372 10.9725 42.7209 10.8397 42.7601 10.6913C42.7992 10.5429 42.7919 10.386 42.7391 10.2419C42.6863 10.0978 42.5905 9.97335 42.4647 9.88538C42.339 9.79741 42.1892 9.75014 42.0357 9.74997C39.8673 9.74997 37.9822 10.1757 36.4014 11.0178C36.6997 10.5173 37.0304 10.0369 37.3915 9.57963C38.032 8.76516 38.7443 8.00977 39.5197 7.32251C39.6369 7.22328 39.7209 7.09045 39.7602 6.94196C39.7995 6.79348 39.7923 6.6365 39.7395 6.49225C39.6867 6.348 39.5909 6.22343 39.4651 6.13539C39.3392 6.04735 39.1893 6.00008 39.0357 5.99997C37.0084 5.99997 35.2201 6.3775 33.6974 7.12113C33.4871 5.55297 32.7759 2.78154 30.3712 1.57919C30.267 1.52711 30.1522 1.5 30.0357 1.5C29.9193 1.5 29.8044 1.52711 29.7003 1.57919C27.2982 2.78022 26.5857 5.54688 26.3747 7.11607C24.857 6.37432 23.0716 5.99997 21.0357 5.99997C20.8822 6.00007 20.7324 6.04727 20.6066 6.13522C20.4807 6.22316 20.3849 6.3476 20.332 6.49174C20.2792 6.63588 20.2718 6.79276 20.311 6.94121C20.3501 7.08966 20.4339 7.22252 20.5509 7.32185C21.3266 8.00915 22.039 8.76465 22.6796 9.57926C23.0399 10.0354 23.37 10.5145 23.6679 11.0136C22.0901 10.1744 20.2067 9.74997 18.0357 9.74997C17.8822 9.75007 17.7324 9.79727 17.6066 9.88522C17.4807 9.97316 17.3849 10.0976 17.332 10.2417C17.2792 10.3859 17.2718 10.5428 17.311 10.6912C17.3501 10.8397 17.4339 10.9725 17.5509 11.0718C17.5805 11.0969 20.3409 13.4625 21.3536 16.1718C20.0699 17.3628 19.0459 18.8061 18.3459 20.4113C17.6459 22.0164 17.285 23.7488 17.2857 25.5V25.586C16.4582 25.7433 15.3631 26.1017 14.7783 26.5407C14.6952 26.6027 14.6078 26.6588 14.5168 26.7085C14.7144 24.9022 15.064 23.0596 15.6597 22.166C15.7159 22.0841 15.7552 21.9919 15.7754 21.8946C15.7956 21.7974 15.7963 21.6971 15.7775 21.5996C15.7586 21.5021 15.7206 21.4094 15.6656 21.3267C15.6106 21.244 15.5397 21.173 15.4571 21.1179C15.3745 21.0629 15.2817 21.0247 15.1842 21.0058C15.0868 20.9868 14.9865 20.9874 14.8892 21.0075C14.792 21.0276 14.6997 21.0669 14.6177 21.1229C14.5358 21.179 14.4657 21.2508 14.4117 21.3341C13.7318 22.3541 13.254 24.2235 12.9904 26.8879C12.7386 26.8162 12.5022 26.6986 12.2932 26.5411C11.5021 25.9469 9.77635 25.5 9.04398 25.5C7.0831 25.5 5.31385 26.2995 4.0622 27.7512C2.6356 29.4059 2.02623 31.7577 2.39026 34.2035L2.85901 37.3514C3.1502 39.3478 3.80185 41.2747 4.7822 43.0381C6.00666 45.2318 8.13142 46.5029 10.3791 46.5028C10.9322 46.5023 11.4826 46.4261 12.015 46.2763C12.0321 46.2715 12.0489 46.2662 12.0654 46.2602L13.32 45.8114C13.4596 45.7608 13.6126 45.7608 13.7522 45.8114L15.0067 46.2602C15.0233 46.2662 15.0401 46.2715 15.0571 46.2763C15.5896 46.4261 16.14 46.5023 16.6931 46.5028C18.3369 46.5028 19.9148 45.8221 21.1231 44.5984C23.6655 45.8404 26.4562 46.4905 29.2857 46.5C33.9545 46.5 38.4654 44.7323 41.9889 41.5227C45.3549 38.4557 47.2857 34.5292 47.2857 30.75C47.2857 30.5511 47.2067 30.3603 47.0661 30.2196C46.9254 30.079 46.7346 30 46.5357 30ZM26.8693 26.2406L30.0456 23.1562L33.2282 26.2459L30.0534 29.325L26.8693 26.2406ZM28.5943 30H24.3062C24.1968 29.6937 24.0674 29.3949 23.919 29.1055L25.7924 27.2862L28.5943 30ZM34.3047 27.2912L37.0951 30H31.5114L34.3047 27.2912ZM31.1218 22.1107L34.2954 19.0288L37.4806 22.1225L34.3053 25.2016L31.1218 22.1107ZM31.6468 14.3658C33.0248 14.5643 34.3535 15.0187 35.5644 15.7054L34.2954 16.9379L31.6468 14.3658ZM33.2188 17.9834L30.0451 21.0656L26.8731 17.9862L30.0474 14.9036L33.2188 17.9834ZM25.7966 16.9406L24.5179 15.6992C25.7341 15.0114 27.0686 14.558 28.4521 14.3625L25.7966 16.9406ZM25.7966 19.0312L28.9689 22.1109L25.7914 25.1966L22.6155 22.1207L25.7966 19.0312ZM24.7147 26.242L23.0771 27.8325C23.0545 27.8054 23.0323 27.7779 23.0093 27.7512C21.9986 26.5716 20.5941 25.7989 19.0568 25.5767L21.5389 23.1662L24.7147 26.242ZM24.2125 37.3514L24.6813 34.2035C24.8175 33.3076 24.8186 32.3963 24.6845 31.5H42.6524C42.2199 33.9766 40.7556 36.4576 38.5466 38.4139C35.9356 40.7265 32.6467 42 29.2857 42C27.2419 41.9916 25.2256 41.5275 23.3837 40.6415C23.7693 39.5753 24.0469 38.473 24.2125 37.3514ZM40.0161 30L41.2857 28.7703V30H40.0161ZM41.2857 26.6823L38.5552 29.3267L35.3824 26.2465L38.5576 23.1676L41.2857 25.8171V26.6823ZM41.1185 23.5637L39.6348 22.1229L40.4751 21.308C40.7683 22.0352 40.9839 22.7913 41.1185 23.5637ZM39.7838 19.8887L38.5582 21.0771L35.3722 17.9834L36.8461 16.552C38.036 17.4595 39.0344 18.5936 39.7838 19.8889V19.8887ZM40.0632 11.3934C39.2019 12.3429 38.1632 13.6783 37.506 15.174C36.8355 14.6874 36.1193 14.2673 35.3674 13.9195C35.3768 13.8027 35.391 13.6859 35.4094 13.5691C36.6176 12.4125 38.1773 11.6838 40.0632 11.3937V11.3934ZM37.0624 7.64341C35.8446 8.986 34.2729 11.0997 33.9249 13.3566C33.0424 13.0733 32.1313 12.8878 31.2083 12.8035C31.1203 12.5304 31.0077 12.2214 30.8648 11.8894C31.7857 10.1257 33.5795 8.18144 37.0624 7.64416V7.64341ZM30.0357 3.11313C31.8943 4.32391 32.2179 7.1006 32.274 7.97875C31.3916 8.6265 30.633 9.42789 30.0346 10.3445C29.6905 9.81843 29.2938 9.32866 28.8506 8.88279C28.5232 8.55441 28.1712 8.2515 27.7976 7.97669C27.8541 7.09638 28.1785 4.32297 30.0357 3.11313ZM23.0101 7.64529C27.1655 8.29029 28.8959 10.9419 29.6019 12.7581C28.4279 12.7969 27.265 12.9986 26.1465 13.3574C26.1231 13.2051 26.0942 13.0537 26.0599 12.903L26.0863 12.8785C26.0726 12.8637 26.0582 12.8494 26.0447 12.8348C25.5574 10.7776 24.1332 8.88372 23.0101 7.64529ZM20.0079 11.3933C21.896 11.6831 23.4543 12.4128 24.6624 13.5708C24.6805 13.6871 24.6949 13.8035 24.7041 13.9198C23.9522 14.2675 23.2359 14.6877 22.5654 15.1743C21.9082 13.6781 20.8693 12.3428 20.0079 11.3933ZM23.2351 16.5446L24.7201 17.9862L21.5377 21.0767L20.2964 19.8744C21.0468 18.5815 22.0455 17.4499 23.2351 16.5446ZM19.6032 21.2913L20.4609 22.1222L18.9485 23.5908C19.0837 22.8031 19.3032 22.0322 19.6032 21.2913ZM20.9795 42.307C20.0288 44.0109 18.3951 45 16.6795 45C16.2762 44.9997 15.8747 44.9453 15.4857 44.8383L14.2576 44.399C13.7911 44.2325 13.2813 44.2325 12.8148 44.399L11.5857 44.8386C9.46698 45.419 7.26217 44.4042 6.09198 42.3074C5.20001 40.7021 4.60728 38.9481 4.3427 37.1309L3.87395 33.9831C3.57395 31.9692 4.05695 30.055 5.19835 28.7311C5.6742 28.1794 6.26504 27.7385 6.92939 27.4395C7.59374 27.1404 8.31549 26.9904 9.04398 27C9.52041 27 10.9134 27.3805 11.3927 27.7406C11.8285 28.0692 12.3335 28.2941 12.8693 28.3981C12.8323 28.9951 12.8117 29.5198 12.8002 29.9216C12.152 29.7761 11.8252 29.4783 11.8074 29.4616L11.8157 29.4697C11.7462 29.3994 11.6634 29.3436 11.5722 29.3054C11.481 29.2672 11.3832 29.2474 11.2843 29.2472C11.1854 29.247 11.0875 29.2663 10.9961 29.304C10.9047 29.3418 10.8217 29.3973 10.7518 29.4672C10.682 29.5372 10.6266 29.6203 10.589 29.7117C10.5514 29.8031 10.5322 29.9011 10.5325 30C10.5329 30.0988 10.5528 30.1967 10.5911 30.2878C10.6294 30.3789 10.6854 30.4616 10.7558 30.5311C10.8564 30.6312 11.7774 31.5 13.5357 31.5C15.2956 31.5 16.217 30.6295 16.3161 30.5303C16.3857 30.4607 16.441 30.378 16.4787 30.287C16.5163 30.196 16.5357 30.0985 16.5357 30C16.5357 29.9015 16.5163 29.8039 16.4787 29.713C16.441 29.622 16.3857 29.5393 16.3161 29.4696C16.2464 29.4 16.1637 29.3447 16.0727 29.307C15.9818 29.2694 15.8842 29.25 15.7857 29.25C15.6872 29.25 15.5897 29.2694 15.4987 29.307C15.4077 29.3447 15.325 29.4 15.2554 29.4696C15.2514 29.4736 14.9311 29.7648 14.2991 29.9139C14.3122 29.4608 14.3359 28.9303 14.3735 28.3607C14.846 28.2443 15.29 28.0333 15.6787 27.7403C16.158 27.3805 17.5509 26.9997 18.0274 26.9997C18.7559 26.9901 19.4776 27.14 20.142 27.439C20.8063 27.738 21.3972 28.1788 21.8731 28.7304C23.0145 30.0543 23.4972 31.9685 23.1975 33.9825L22.7288 37.1302C22.4642 38.9476 21.8714 40.7017 20.9795 42.307ZM40.9782 40.4138C37.7319 43.3713 33.5795 45 29.2857 45C26.7954 44.9913 24.3366 44.4424 22.079 43.3911C22.1516 43.2761 22.2222 43.1587 22.2895 43.0381C22.4741 42.7074 22.6469 42.3708 22.8079 42.0282C24.8327 42.989 27.0445 43.4915 29.2857 43.5C33.0134 43.5 36.6555 42.0925 39.5412 39.5368C42.0772 37.2908 43.7366 34.3956 44.1713 31.5H45.7569C45.5184 34.6268 43.8067 37.8375 40.9782 40.4138Z"/>
</mask>
<path d="M46.5357 30H42.7857V25.5C42.7865 23.7488 42.4255 22.0164 41.7255 20.4113C41.0256 18.8061 40.0016 17.3628 38.7178 16.1718C39.7303 13.4625 42.491 11.0972 42.5201 11.0718C42.6372 10.9725 42.7209 10.8397 42.7601 10.6913C42.7992 10.5429 42.7919 10.386 42.7391 10.2419C42.6863 10.0978 42.5905 9.97335 42.4647 9.88538C42.339 9.79741 42.1892 9.75014 42.0357 9.74997C39.8673 9.74997 37.9822 10.1757 36.4014 11.0178C36.6997 10.5173 37.0304 10.0369 37.3915 9.57963C38.032 8.76516 38.7443 8.00977 39.5197 7.32251C39.6369 7.22328 39.7209 7.09045 39.7602 6.94196C39.7995 6.79348 39.7923 6.6365 39.7395 6.49225C39.6867 6.348 39.5909 6.22343 39.4651 6.13539C39.3392 6.04735 39.1893 6.00008 39.0357 5.99997C37.0084 5.99997 35.2201 6.3775 33.6974 7.12113C33.4871 5.55297 32.7759 2.78154 30.3712 1.57919C30.267 1.52711 30.1522 1.5 30.0357 1.5C29.9193 1.5 29.8044 1.52711 29.7003 1.57919C27.2982 2.78022 26.5857 5.54688 26.3747 7.11607C24.857 6.37432 23.0716 5.99997 21.0357 5.99997C20.8822 6.00007 20.7324 6.04727 20.6066 6.13522C20.4807 6.22316 20.3849 6.3476 20.332 6.49174C20.2792 6.63588 20.2718 6.79276 20.311 6.94121C20.3501 7.08966 20.4339 7.22252 20.5509 7.32185C21.3266 8.00915 22.039 8.76465 22.6796 9.57926C23.0399 10.0354 23.37 10.5145 23.6679 11.0136C22.0901 10.1744 20.2067 9.74997 18.0357 9.74997C17.8822 9.75007 17.7324 9.79727 17.6066 9.88522C17.4807 9.97316 17.3849 10.0976 17.332 10.2417C17.2792 10.3859 17.2718 10.5428 17.311 10.6912C17.3501 10.8397 17.4339 10.9725 17.5509 11.0718C17.5805 11.0969 20.3409 13.4625 21.3536 16.1718C20.0699 17.3628 19.0459 18.8061 18.3459 20.4113C17.6459 22.0164 17.285 23.7488 17.2857 25.5V25.586C16.4582 25.7433 15.3631 26.1017 14.7783 26.5407C14.6952 26.6027 14.6078 26.6588 14.5168 26.7085C14.7144 24.9022 15.064 23.0596 15.6597 22.166C15.7159 22.0841 15.7552 21.9919 15.7754 21.8946C15.7956 21.7974 15.7963 21.6971 15.7775 21.5996C15.7586 21.5021 15.7206 21.4094 15.6656 21.3267C15.6106 21.244 15.5397 21.173 15.4571 21.1179C15.3745 21.0629 15.2817 21.0247 15.1842 21.0058C15.0868 20.9868 14.9865 20.9874 14.8892 21.0075C14.792 21.0276 14.6997 21.0669 14.6177 21.1229C14.5358 21.179 14.4657 21.2508 14.4117 21.3341C13.7318 22.3541 13.254 24.2235 12.9904 26.8879C12.7386 26.8162 12.5022 26.6986 12.2932 26.5411C11.5021 25.9469 9.77635 25.5 9.04398 25.5C7.0831 25.5 5.31385 26.2995 4.0622 27.7512C2.6356 29.4059 2.02623 31.7577 2.39026 34.2035L2.85901 37.3514C3.1502 39.3478 3.80185 41.2747 4.7822 43.0381C6.00666 45.2318 8.13142 46.5029 10.3791 46.5028C10.9322 46.5023 11.4826 46.4261 12.015 46.2763C12.0321 46.2715 12.0489 46.2662 12.0654 46.2602L13.32 45.8114C13.4596 45.7608 13.6126 45.7608 13.7522 45.8114L15.0067 46.2602C15.0233 46.2662 15.0401 46.2715 15.0571 46.2763C15.5896 46.4261 16.14 46.5023 16.6931 46.5028C18.3369 46.5028 19.9148 45.8221 21.1231 44.5984C23.6655 45.8404 26.4562 46.4905 29.2857 46.5C33.9545 46.5 38.4654 44.7323 41.9889 41.5227C45.3549 38.4557 47.2857 34.5292 47.2857 30.75C47.2857 30.5511 47.2067 30.3603 47.0661 30.2196C46.9254 30.079 46.7346 30 46.5357 30ZM26.8693 26.2406L30.0456 23.1562L33.2282 26.2459L30.0534 29.325L26.8693 26.2406ZM28.5943 30H24.3062C24.1968 29.6937 24.0674 29.3949 23.919 29.1055L25.7924 27.2862L28.5943 30ZM34.3047 27.2912L37.0951 30H31.5114L34.3047 27.2912ZM31.1218 22.1107L34.2954 19.0288L37.4806 22.1225L34.3053 25.2016L31.1218 22.1107ZM31.6468 14.3658C33.0248 14.5643 34.3535 15.0187 35.5644 15.7054L34.2954 16.9379L31.6468 14.3658ZM33.2188 17.9834L30.0451 21.0656L26.8731 17.9862L30.0474 14.9036L33.2188 17.9834ZM25.7966 16.9406L24.5179 15.6992C25.7341 15.0114 27.0686 14.558 28.4521 14.3625L25.7966 16.9406ZM25.7966 19.0312L28.9689 22.1109L25.7914 25.1966L22.6155 22.1207L25.7966 19.0312ZM24.7147 26.242L23.0771 27.8325C23.0545 27.8054 23.0323 27.7779 23.0093 27.7512C21.9986 26.5716 20.5941 25.7989 19.0568 25.5767L21.5389 23.1662L24.7147 26.242ZM24.2125 37.3514L24.6813 34.2035C24.8175 33.3076 24.8186 32.3963 24.6845 31.5H42.6524C42.2199 33.9766 40.7556 36.4576 38.5466 38.4139C35.9356 40.7265 32.6467 42 29.2857 42C27.2419 41.9916 25.2256 41.5275 23.3837 40.6415C23.7693 39.5753 24.0469 38.473 24.2125 37.3514ZM40.0161 30L41.2857 28.7703V30H40.0161ZM41.2857 26.6823L38.5552 29.3267L35.3824 26.2465L38.5576 23.1676L41.2857 25.8171V26.6823ZM41.1185 23.5637L39.6348 22.1229L40.4751 21.308C40.7683 22.0352 40.9839 22.7913 41.1185 23.5637ZM39.7838 19.8887L38.5582 21.0771L35.3722 17.9834L36.8461 16.552C38.036 17.4595 39.0344 18.5936 39.7838 19.8889V19.8887ZM40.0632 11.3934C39.2019 12.3429 38.1632 13.6783 37.506 15.174C36.8355 14.6874 36.1193 14.2673 35.3674 13.9195C35.3768 13.8027 35.391 13.6859 35.4094 13.5691C36.6176 12.4125 38.1773 11.6838 40.0632 11.3937V11.3934ZM37.0624 7.64341C35.8446 8.986 34.2729 11.0997 33.9249 13.3566C33.0424 13.0733 32.1313 12.8878 31.2083 12.8035C31.1203 12.5304 31.0077 12.2214 30.8648 11.8894C31.7857 10.1257 33.5795 8.18144 37.0624 7.64416V7.64341ZM30.0357 3.11313C31.8943 4.32391 32.2179 7.1006 32.274 7.97875C31.3916 8.6265 30.633 9.42789 30.0346 10.3445C29.6905 9.81843 29.2938 9.32866 28.8506 8.88279C28.5232 8.55441 28.1712 8.2515 27.7976 7.97669C27.8541 7.09638 28.1785 4.32297 30.0357 3.11313ZM23.0101 7.64529C27.1655 8.29029 28.8959 10.9419 29.6019 12.7581C28.4279 12.7969 27.265 12.9986 26.1465 13.3574C26.1231 13.2051 26.0942 13.0537 26.0599 12.903L26.0863 12.8785C26.0726 12.8637 26.0582 12.8494 26.0447 12.8348C25.5574 10.7776 24.1332 8.88372 23.0101 7.64529ZM20.0079 11.3933C21.896 11.6831 23.4543 12.4128 24.6624 13.5708C24.6805 13.6871 24.6949 13.8035 24.7041 13.9198C23.9522 14.2675 23.2359 14.6877 22.5654 15.1743C21.9082 13.6781 20.8693 12.3428 20.0079 11.3933ZM23.2351 16.5446L24.7201 17.9862L21.5377 21.0767L20.2964 19.8744C21.0468 18.5815 22.0455 17.4499 23.2351 16.5446ZM19.6032 21.2913L20.4609 22.1222L18.9485 23.5908C19.0837 22.8031 19.3032 22.0322 19.6032 21.2913ZM20.9795 42.307C20.0288 44.0109 18.3951 45 16.6795 45C16.2762 44.9997 15.8747 44.9453 15.4857 44.8383L14.2576 44.399C13.7911 44.2325 13.2813 44.2325 12.8148 44.399L11.5857 44.8386C9.46698 45.419 7.26217 44.4042 6.09198 42.3074C5.20001 40.7021 4.60728 38.9481 4.3427 37.1309L3.87395 33.9831C3.57395 31.9692 4.05695 30.055 5.19835 28.7311C5.6742 28.1794 6.26504 27.7385 6.92939 27.4395C7.59374 27.1404 8.31549 26.9904 9.04398 27C9.52041 27 10.9134 27.3805 11.3927 27.7406C11.8285 28.0692 12.3335 28.2941 12.8693 28.3981C12.8323 28.9951 12.8117 29.5198 12.8002 29.9216C12.152 29.7761 11.8252 29.4783 11.8074 29.4616L11.8157 29.4697C11.7462 29.3994 11.6634 29.3436 11.5722 29.3054C11.481 29.2672 11.3832 29.2474 11.2843 29.2472C11.1854 29.247 11.0875 29.2663 10.9961 29.304C10.9047 29.3418 10.8217 29.3973 10.7518 29.4672C10.682 29.5372 10.6266 29.6203 10.589 29.7117C10.5514 29.8031 10.5322 29.9011 10.5325 30C10.5329 30.0988 10.5528 30.1967 10.5911 30.2878C10.6294 30.3789 10.6854 30.4616 10.7558 30.5311C10.8564 30.6312 11.7774 31.5 13.5357 31.5C15.2956 31.5 16.217 30.6295 16.3161 30.5303C16.3857 30.4607 16.441 30.378 16.4787 30.287C16.5163 30.196 16.5357 30.0985 16.5357 30C16.5357 29.9015 16.5163 29.8039 16.4787 29.713C16.441 29.622 16.3857 29.5393 16.3161 29.4696C16.2464 29.4 16.1637 29.3447 16.0727 29.307C15.9818 29.2694 15.8842 29.25 15.7857 29.25C15.6872 29.25 15.5897 29.2694 15.4987 29.307C15.4077 29.3447 15.325 29.4 15.2554 29.4696C15.2514 29.4736 14.9311 29.7648 14.2991 29.9139C14.3122 29.4608 14.3359 28.9303 14.3735 28.3607C14.846 28.2443 15.29 28.0333 15.6787 27.7403C16.158 27.3805 17.5509 26.9997 18.0274 26.9997C18.7559 26.9901 19.4776 27.14 20.142 27.439C20.8063 27.738 21.3972 28.1788 21.8731 28.7304C23.0145 30.0543 23.4972 31.9685 23.1975 33.9825L22.7288 37.1302C22.4642 38.9476 21.8714 40.7017 20.9795 42.307ZM40.9782 40.4138C37.7319 43.3713 33.5795 45 29.2857 45C26.7954 44.9913 24.3366 44.4424 22.079 43.3911C22.1516 43.2761 22.2222 43.1587 22.2895 43.0381C22.4741 42.7074 22.6469 42.3708 22.8079 42.0282C24.8327 42.989 27.0445 43.4915 29.2857 43.5C33.0134 43.5 36.6555 42.0925 39.5412 39.5368C42.0772 37.2908 43.7366 34.3956 44.1713 31.5H45.7569C45.5184 34.6268 43.8067 37.8375 40.9782 40.4138Z" stroke="#F28537" stroke-width="2" mask="url(#path-1-inside-1_302_2964)"/>
</g>
<path id="Vector_2" d="M39.0356 34.5C39.4499 34.5 39.7856 34.1642 39.7856 33.75C39.7856 33.3358 39.4499 33 39.0356 33C38.6214 33 38.2856 33.3358 38.2856 33.75C38.2856 34.1642 38.6214 34.5 39.0356 34.5Z" fill="#F28537"/>
<path id="Vector_3" d="M35.2856 38.25C35.6999 38.25 36.0356 37.9142 36.0356 37.5C36.0356 37.0858 35.6999 36.75 35.2856 36.75C34.8714 36.75 34.5356 37.0858 34.5356 37.5C34.5356 37.9142 34.8714 38.25 35.2856 38.25Z" fill="#F28537"/>
<path id="Vector_4" d="M31.5356 36C31.9499 36 32.2856 35.6642 32.2856 35.25C32.2856 34.8358 31.9499 34.5 31.5356 34.5C31.1214 34.5 30.7856 34.8358 30.7856 35.25C30.7856 35.6642 31.1214 36 31.5356 36Z" fill="#F28537"/>
<path id="Vector_5" d="M27.0356 36C27.4499 36 27.7856 35.6642 27.7856 35.25C27.7856 34.8358 27.4499 34.5 27.0356 34.5C26.6214 34.5 26.2856 34.8358 26.2856 35.25C26.2856 35.6642 26.6214 36 27.0356 36Z" fill="#F28537"/>
<path id="Vector_6" d="M29.2856 40.5C29.6999 40.5 30.0356 40.1642 30.0356 39.75C30.0356 39.3358 29.6999 39 29.2856 39C28.8714 39 28.5356 39.3358 28.5356 39.75C28.5356 40.1642 28.8714 40.5 29.2856 40.5Z" fill="#F28537"/>
</g>
</svg>
