<svg width="45" height="32" viewBox="0 0 45 32" fill="none" xmlns="http://www.w3.org/2000/svg">
<g id="Group">
<g id="Vector">
<mask id="path-1-inside-1_302_2906" fill="white">
<path d="M43.5937 8.62431L43.4685 8.50393C43.3605 8.40006 43.2255 8.26318 43.065 8.10043C42.8883 7.92118 42.6727 7.70368 42.4275 7.46293C42.6555 7.08418 42.9468 6.66568 43.3143 6.13956C43.5727 5.76906 43.8667 5.34831 44.2001 4.85256C44.253 4.7741 44.2883 4.68511 44.3036 4.59171C44.3189 4.49831 44.3138 4.4027 44.2886 4.31146C44.2635 4.22022 44.2189 4.13551 44.1579 4.06313C44.0969 3.99076 44.021 3.93244 43.9353 3.89218C43.4421 3.67568 42.9019 3.58795 42.3654 3.6372C41.829 3.68646 41.3138 3.8711 40.8682 4.17381L40.8791 4.12881C40.9845 3.69081 41.1041 3.19131 41.2346 2.61306C41.2552 2.5207 41.2557 2.42497 41.2359 2.33243C41.2161 2.23988 41.1765 2.15271 41.1199 2.07689C41.0633 2.00106 40.9909 1.93837 40.9078 1.89312C40.8247 1.84786 40.7328 1.82111 40.6383 1.81468C39.5718 1.74531 38.3268 2.26168 37.5075 3.77143C37.2011 3.65473 36.8816 3.57577 36.5561 3.53631C36.3363 2.787 35.9187 2.11075 35.3472 1.57867C34.7757 1.0466 34.0713 0.678362 33.3082 0.512683C33.1559 0.487588 32.9997 0.516702 32.8667 0.594957C32.7337 0.673212 32.6324 0.795646 32.5803 0.940933C32.184 2.11112 31.9172 3.32122 31.7846 4.54956C31.4302 4.67668 31.0638 4.80981 30.6712 4.95381C30.2152 5.12143 29.7337 5.29881 29.2192 5.48218C25.8461 6.68743 20.1727 6.71743 12.3566 5.57068C9.35659 5.13118 6.88496 5.70793 5.20609 7.23793C5.0016 7.42472 4.81003 7.62518 4.63271 7.83793C3.80092 7.84619 3.005 8.17785 2.41346 8.76268C0.832088 10.3178 0.217838 13.8136 0.424463 20.0978C0.430011 20.2681 0.501542 20.4295 0.623936 20.548C0.74633 20.6664 0.909995 20.7327 1.08034 20.7327H1.10209C1.27603 20.727 1.4406 20.6525 1.55959 20.5255C1.67858 20.3985 1.74225 20.2294 1.73659 20.0554C1.54909 14.3281 2.07184 10.9403 3.33409 9.69906C3.43452 9.5997 3.54556 9.51168 3.66521 9.43656C3.10191 10.8336 2.86922 12.342 2.98534 13.8439C3.03377 15.8829 3.21705 17.9165 3.53396 19.9313C3.79646 21.8528 4.04059 23.6674 3.86809 24.6979C3.68244 25.7532 3.75135 26.8375 4.06909 27.8607C4.33127 28.8932 4.52061 29.943 4.63571 31.0021C4.6537 31.1624 4.73014 31.3106 4.85044 31.4181C4.97074 31.5257 5.12646 31.5852 5.28784 31.5852H7.81909C7.91394 31.5852 8.00767 31.5647 8.09382 31.525C8.17997 31.4853 8.25649 31.4274 8.31812 31.3553C8.37974 31.2832 8.42501 31.1986 8.45079 31.1073C8.47657 31.016 8.48226 30.9202 8.46746 30.8266C8.46109 30.7857 7.84534 26.8763 7.79584 25.1851C7.99421 24.8948 8.41721 24.2663 8.95421 23.4109C8.97987 23.8388 8.96443 24.2681 8.90809 24.6931C8.72044 25.7506 8.78846 26.8377 9.10646 27.8637C9.36792 28.8953 9.55688 29.944 9.67196 31.0021C9.68987 31.1625 9.76629 31.3106 9.8866 31.4182C10.0069 31.5258 10.1627 31.5853 10.3241 31.5852H12.8553C12.9501 31.5852 13.0438 31.5647 13.1299 31.525C13.216 31.4853 13.2925 31.4275 13.3541 31.3554C13.4157 31.2833 13.4609 31.1988 13.4867 31.1075C13.5125 31.0163 13.5181 30.9206 13.5033 30.8269C13.497 30.7861 12.885 26.8767 12.8358 25.1854C13.0376 24.8907 13.4733 24.2453 14.0208 23.3663C16.6233 23.6524 19.5037 23.6877 22.482 23.7233C22.77 23.7267 23.0647 23.7312 23.3561 23.7349C23.3665 24.0556 23.3492 24.3765 23.3043 24.6942C23.1185 25.7512 23.1869 26.8372 23.5038 27.8626C23.7641 28.8947 23.9521 29.9437 24.0663 31.0021C24.0842 31.1625 24.1607 31.3106 24.281 31.4182C24.4013 31.5258 24.5571 31.5853 24.7185 31.5852H27.2497C27.3445 31.5851 27.4382 31.5646 27.5243 31.5249C27.6103 31.4852 27.6868 31.4273 27.7484 31.3553C27.81 31.2832 27.8553 31.1987 27.8811 31.1075C27.907 31.0163 27.9128 30.9206 27.8981 30.8269C27.8928 30.7861 27.2812 26.8752 27.2321 25.1847C27.405 24.9316 27.7496 24.4178 28.1925 23.7196C28.2596 23.7132 28.332 23.7124 28.3983 23.7053C28.4085 24.0367 28.3904 24.3684 28.3443 24.6968C28.1566 25.7523 28.2241 26.8374 28.5412 27.8614C28.8022 28.8932 28.9903 29.942 29.1041 31.0002C29.1219 31.1608 29.1983 31.3091 29.3187 31.4169C29.4391 31.5246 29.595 31.5841 29.7566 31.5841H32.2878C32.3826 31.5841 32.4762 31.5636 32.5622 31.5239C32.6483 31.4843 32.7247 31.4265 32.7863 31.3545C32.8479 31.2825 32.8931 31.1981 32.9189 31.1069C32.9447 31.0158 32.9505 30.9201 32.9358 30.8266C32.9298 30.7857 32.3212 26.8756 32.2721 25.1843C33.4765 23.4104 34.5841 21.5727 35.5901 19.6793C35.5972 19.6677 35.604 19.6561 35.6096 19.6463C36.1884 18.4517 36.6508 17.204 36.9903 15.9207C37.0841 15.6034 37.1906 15.2457 37.2225 15.1707C37.5855 14.4998 37.9286 13.8668 39.7398 14.4421C42.3648 15.2731 43.4805 14.3209 44.4303 12.5161C45.5115 10.4577 44.3111 9.30981 43.5937 8.62431ZM42.5493 4.94556C42.441 5.10193 42.3382 5.24931 42.24 5.38956C41.9306 5.83243 41.6775 6.20143 41.4581 6.54718C41.2428 6.35256 41.0148 6.15306 40.7752 5.95131C41.2241 5.41086 41.8551 5.05316 42.5493 4.94556ZM12.0922 30.2727H10.9053C10.7836 29.3575 10.609 28.4501 10.3826 27.5551C10.1067 26.7012 10.045 25.7927 10.203 24.9094C10.2963 24.1713 10.3038 23.4248 10.2251 22.6849C11.003 22.8916 11.7917 23.0556 12.5876 23.1762C12.0273 24.0526 11.6441 24.6012 11.6392 24.6083C11.5619 24.7181 11.5203 24.849 11.52 24.9833C11.6175 26.7553 11.8085 28.5209 12.0922 30.2727ZM26.4885 30.2727H25.3012C25.1798 29.3576 25.0059 28.4502 24.7803 27.5551C24.5056 26.7011 24.4436 25.7928 24.6 24.9094C24.6555 24.5273 24.6782 24.1412 24.6678 23.7552C25.1497 23.7634 25.632 23.7721 26.1082 23.7848C26.2728 23.7893 26.4277 23.7848 26.589 23.7848C26.2515 24.2978 26.0385 24.6057 26.0351 24.6098C25.9583 24.7198 25.9169 24.8506 25.9166 24.9848C26.014 26.7563 26.2049 28.5213 26.4885 30.2727ZM43.2678 11.9071C42.4976 13.3714 41.9362 13.7629 40.1362 13.1922C37.629 12.3961 36.6723 13.4303 36.069 14.5456C35.9708 14.7566 35.8924 14.9763 35.8346 15.2018C35.4086 14.6367 34.9901 14.0618 34.5907 13.4899C34.5431 13.4155 34.4809 13.3515 34.4079 13.3017C34.3349 13.2519 34.2527 13.2174 34.166 13.2002C34.0794 13.1829 33.9901 13.1834 33.9036 13.2015C33.8172 13.2196 33.7352 13.2549 33.6628 13.3055C33.5903 13.356 33.5288 13.4206 33.4819 13.4955C33.435 13.5704 33.4037 13.654 33.3899 13.7412C33.3761 13.8285 33.38 13.9176 33.4015 14.0033C33.423 14.089 33.4615 14.1695 33.5148 14.2399C33.9453 14.8564 34.3965 15.4774 34.8562 16.0842C34.9175 16.1653 34.9969 16.2311 35.088 16.2763C35.1791 16.3214 35.2795 16.3448 35.3812 16.3444C35.4208 16.3417 35.4601 16.3354 35.4986 16.3257C35.2336 17.2455 34.8886 18.1404 34.4677 19.0002C34.458 19.0163 34.4478 19.0332 34.4407 19.0471C34.4205 19.0846 34.4002 19.1221 34.3803 19.1596C34.0383 19.0816 33.5403 18.9687 32.9347 18.8348C32.8506 18.8162 32.7636 18.8144 32.6787 18.8295C32.5938 18.8445 32.5128 18.8762 32.4401 18.9226C32.3675 18.9689 32.3047 19.0292 32.2553 19.0998C32.206 19.1705 32.171 19.2501 32.1525 19.3343C32.1339 19.4185 32.1321 19.5055 32.1471 19.5903C32.1622 19.6752 32.1938 19.7562 32.2402 19.8289C32.2866 19.9015 32.3468 19.9643 32.4175 20.0137C32.4881 20.063 32.5678 20.098 32.652 20.1166C33.0645 20.2077 33.4278 20.2891 33.7245 20.3566C32.3703 22.7502 31.0901 24.5877 31.0751 24.6087C30.9982 24.7186 30.9568 24.8495 30.9566 24.9837C31.0535 26.7549 31.2434 28.5199 31.5255 30.2712H30.3378C30.2173 29.3554 30.0433 28.4475 29.817 27.5521C29.542 26.6992 29.4809 25.7919 29.6388 24.9098C29.7248 24.2495 29.7388 23.5819 29.6805 22.9186C29.6748 22.8271 29.65 22.7378 29.6077 22.6565C29.5655 22.5751 29.5066 22.5036 29.435 22.4463C29.3634 22.3891 29.2807 22.3475 29.192 22.3242C29.1034 22.3009 29.0108 22.2964 28.9203 22.3111C28.0024 22.4512 27.0733 22.5048 26.1453 22.4712C25.3012 22.4487 24.4492 22.4356 23.6032 22.4243C23.8208 21.8417 24.0024 21.2464 24.147 20.6416C24.1867 20.4721 24.1576 20.2937 24.0659 20.1458C23.9742 19.9978 23.8274 19.8923 23.658 19.8526C23.4885 19.8128 23.3102 19.8419 23.1622 19.9337C23.0142 20.0254 22.9087 20.1721 22.869 20.3416C22.7072 21.0389 22.4912 21.7225 22.2228 22.3861C22.2202 22.3924 22.2202 22.3992 22.218 22.4052C18.7545 22.3636 15.4376 22.3099 12.6067 21.8472C12.7638 21.5753 12.9723 21.2393 13.2386 20.8553C13.2878 20.7845 13.3226 20.7047 13.341 20.6204C13.3594 20.5361 13.3611 20.4491 13.3458 20.3642C13.3306 20.2793 13.2987 20.1982 13.2522 20.1256C13.2056 20.053 13.1452 19.9903 13.0743 19.9411C13.0035 19.8918 12.9237 19.857 12.8394 19.8386C12.7552 19.8202 12.6681 19.8186 12.5832 19.8338C12.4983 19.8491 12.4172 19.8809 12.3446 19.9275C12.272 19.9741 12.2093 20.0345 12.1601 20.1053C11.8282 20.5809 11.525 21.0759 11.2522 21.5877C10.6446 21.452 10.0457 21.2802 9.45859 21.0732C9.45634 21.0732 9.45371 21.0732 9.45109 21.0732C9.33521 21.0259 8.78434 20.7991 8.04821 20.4278C7.97119 20.3883 7.88712 20.3644 7.80083 20.3575C7.71453 20.3506 7.62773 20.3609 7.54542 20.3877C7.46311 20.4145 7.38691 20.4573 7.32122 20.5137C7.25553 20.5701 7.20164 20.6389 7.16266 20.7162C7.12368 20.7935 7.10038 20.8777 7.0941 20.964C7.08781 21.0504 7.09867 21.1371 7.12605 21.2192C7.15343 21.3014 7.19679 21.3772 7.25362 21.4425C7.31046 21.5078 7.37965 21.5612 7.45721 21.5997C7.77221 21.7587 8.05234 21.8911 8.28671 21.9979C7.34359 23.5441 6.60709 24.6001 6.59921 24.6121C6.52224 24.722 6.48088 24.8529 6.48071 24.9871C6.57883 26.7585 6.77072 28.5234 7.05559 30.2746H5.86871C5.74676 29.3581 5.57146 28.4496 5.34371 27.5536C5.06856 26.7022 5.00612 25.7965 5.16184 24.9154C5.35684 23.7507 5.14271 22.0426 4.87534 20.0644C5.05721 20.1934 5.24359 20.3213 5.43784 20.4481C5.58371 20.5343 5.7573 20.5608 5.92225 20.522C6.08721 20.4831 6.23076 20.382 6.32283 20.2397C6.4149 20.0975 6.44836 19.9251 6.41621 19.7587C6.38406 19.5923 6.28879 19.4448 6.15034 19.3471C5.61564 19.0037 5.10632 18.6224 4.62634 18.2059C4.47634 17.0258 4.34846 15.7924 4.30721 14.5823C4.47596 14.5913 4.65746 14.5962 4.85546 14.5962C5.16671 14.5962 5.51696 14.5849 5.89646 14.5628C6.05402 14.5561 6.20419 14.4942 6.32072 14.3879C6.43726 14.2817 6.51273 14.1378 6.53396 13.9816C6.54553 13.8862 6.53593 13.7895 6.50584 13.6982C6.47574 13.607 6.42591 13.5236 6.35987 13.4538C6.29384 13.3841 6.21324 13.3297 6.1238 13.2947C6.03437 13.2596 5.93831 13.2447 5.84246 13.2511C5.32349 13.2875 4.80278 13.2924 4.28321 13.2657C4.26784 11.0284 4.86784 9.32518 6.09184 8.20806C7.46996 6.95181 9.57034 6.48906 12.1668 6.86931C12.5902 6.93156 13.0027 6.98818 13.413 7.04368C13.4055 7.22443 13.4021 7.41306 13.4058 7.61293C13.4091 7.78476 13.4796 7.94846 13.6022 8.06886C13.7249 8.18926 13.8899 8.25674 14.0617 8.25681H14.0745C14.1606 8.2552 14.2456 8.23662 14.3246 8.20214C14.4036 8.16766 14.475 8.11795 14.5348 8.05586C14.5945 7.99376 14.6415 7.9205 14.6729 7.84025C14.7043 7.76 14.7197 7.67435 14.718 7.58818C14.7153 7.45431 14.718 7.33393 14.7225 7.21131C17.4726 7.57125 20.2443 7.74078 23.0178 7.71868C23.0073 7.93393 23.0013 8.16118 23.0013 8.40643C23.0013 8.69706 23.0085 9.00043 23.0208 9.31468C23.0276 9.48405 23.0996 9.64423 23.2218 9.76172C23.344 9.87921 23.5068 9.9449 23.6763 9.94506H23.7026C23.8765 9.93813 24.0406 9.86243 24.1587 9.73459C24.2768 9.60675 24.3394 9.43724 24.3326 9.26331C24.321 8.96706 24.3138 8.68093 24.3138 8.40681C24.3138 8.13868 24.321 7.89493 24.3345 7.66918C26.1423 7.60396 27.932 7.28536 29.6512 6.72268C29.7507 7.24276 29.8987 7.75237 30.0933 8.24481C30.1239 8.32584 30.1701 8.40003 30.2294 8.46311C30.2888 8.52619 30.36 8.5769 30.439 8.61232C30.518 8.64774 30.6033 8.66718 30.6898 8.66951C30.7764 8.67184 30.8625 8.65701 30.9433 8.62589C31.0242 8.59476 31.098 8.54796 31.1606 8.48816C31.2233 8.42837 31.2734 8.35677 31.3083 8.27749C31.3431 8.19822 31.3619 8.11283 31.3636 8.02626C31.3653 7.93968 31.3498 7.85363 31.3181 7.77306C31.122 7.28955 30.981 6.7855 30.8977 6.27043L31.1268 6.18643C31.3518 6.10393 31.5671 6.02518 31.7778 5.94868C31.8028 6.24957 31.8595 6.54697 31.947 6.83593C32.0005 7.00044 32.1168 7.13716 32.2706 7.21634C32.4244 7.29553 32.6033 7.31078 32.7683 7.25879C32.9333 7.20679 33.071 7.09174 33.1517 6.93867C33.2323 6.78561 33.2492 6.6069 33.1987 6.44143C32.826 5.25981 33.2823 3.17293 33.6326 1.97368C34.4201 2.30856 35.7176 3.25618 35.3898 5.82268C35.3715 5.99353 35.4209 6.16473 35.5274 6.29957C35.6339 6.43441 35.789 6.52214 35.9595 6.54392C36.1299 6.56571 36.3021 6.51983 36.4391 6.41612C36.5761 6.31241 36.6669 6.15913 36.6922 5.98918C36.7385 5.62962 36.7584 5.26715 36.7518 4.90468C36.8423 4.92865 36.9314 4.95732 37.0188 4.99056C36.9618 5.18331 36.9063 5.38356 36.8625 5.59693C36.8259 5.7671 36.8584 5.94484 36.9528 6.09105C37.0473 6.23726 37.1959 6.33996 37.3661 6.37656C37.5363 6.41316 37.714 6.38066 37.8602 6.28621C38.0064 6.19176 38.1091 6.0431 38.1457 5.87293C38.4633 4.39543 39.0896 3.61318 39.7331 3.29593C39.6892 3.48118 39.6468 3.65631 39.6067 3.82093C39.2471 5.31118 39.03 6.21043 39.1942 7.35456C39.2167 7.51061 39.2947 7.65334 39.4138 7.75663C39.533 7.85993 39.6853 7.91687 39.843 7.91706C39.8743 7.91702 39.9057 7.91477 39.9367 7.91031C40.0645 7.89211 40.1841 7.83661 40.2805 7.75076C40.3769 7.66491 40.4458 7.55252 40.4786 7.42768C41.1607 8.03706 41.7198 8.60181 42.1331 9.02031C42.303 9.19243 42.4458 9.33718 42.5587 9.44593L42.6888 9.57118C43.3852 10.2409 43.89 10.7232 43.2678 11.9071Z"/>
</mask>
<path d="M43.5937 8.62431L43.4685 8.50393C43.3605 8.40006 43.2255 8.26318 43.065 8.10043C42.8883 7.92118 42.6727 7.70368 42.4275 7.46293C42.6555 7.08418 42.9468 6.66568 43.3143 6.13956C43.5727 5.76906 43.8667 5.34831 44.2001 4.85256C44.253 4.7741 44.2883 4.68511 44.3036 4.59171C44.3189 4.49831 44.3138 4.4027 44.2886 4.31146C44.2635 4.22022 44.2189 4.13551 44.1579 4.06313C44.0969 3.99076 44.021 3.93244 43.9353 3.89218C43.4421 3.67568 42.9019 3.58795 42.3654 3.6372C41.829 3.68646 41.3138 3.8711 40.8682 4.17381L40.8791 4.12881C40.9845 3.69081 41.1041 3.19131 41.2346 2.61306C41.2552 2.5207 41.2557 2.42497 41.2359 2.33243C41.2161 2.23988 41.1765 2.15271 41.1199 2.07689C41.0633 2.00106 40.9909 1.93837 40.9078 1.89312C40.8247 1.84786 40.7328 1.82111 40.6383 1.81468C39.5718 1.74531 38.3268 2.26168 37.5075 3.77143C37.2011 3.65473 36.8816 3.57577 36.5561 3.53631C36.3363 2.787 35.9187 2.11075 35.3472 1.57867C34.7757 1.0466 34.0713 0.678362 33.3082 0.512683C33.1559 0.487588 32.9997 0.516702 32.8667 0.594957C32.7337 0.673212 32.6324 0.795646 32.5803 0.940933C32.184 2.11112 31.9172 3.32122 31.7846 4.54956C31.4302 4.67668 31.0638 4.80981 30.6712 4.95381C30.2152 5.12143 29.7337 5.29881 29.2192 5.48218C25.8461 6.68743 20.1727 6.71743 12.3566 5.57068C9.35659 5.13118 6.88496 5.70793 5.20609 7.23793C5.0016 7.42472 4.81003 7.62518 4.63271 7.83793C3.80092 7.84619 3.005 8.17785 2.41346 8.76268C0.832088 10.3178 0.217838 13.8136 0.424463 20.0978C0.430011 20.2681 0.501542 20.4295 0.623936 20.548C0.74633 20.6664 0.909995 20.7327 1.08034 20.7327H1.10209C1.27603 20.727 1.4406 20.6525 1.55959 20.5255C1.67858 20.3985 1.74225 20.2294 1.73659 20.0554C1.54909 14.3281 2.07184 10.9403 3.33409 9.69906C3.43452 9.5997 3.54556 9.51168 3.66521 9.43656C3.10191 10.8336 2.86922 12.342 2.98534 13.8439C3.03377 15.8829 3.21705 17.9165 3.53396 19.9313C3.79646 21.8528 4.04059 23.6674 3.86809 24.6979C3.68244 25.7532 3.75135 26.8375 4.06909 27.8607C4.33127 28.8932 4.52061 29.943 4.63571 31.0021C4.6537 31.1624 4.73014 31.3106 4.85044 31.4181C4.97074 31.5257 5.12646 31.5852 5.28784 31.5852H7.81909C7.91394 31.5852 8.00767 31.5647 8.09382 31.525C8.17997 31.4853 8.25649 31.4274 8.31812 31.3553C8.37974 31.2832 8.42501 31.1986 8.45079 31.1073C8.47657 31.016 8.48226 30.9202 8.46746 30.8266C8.46109 30.7857 7.84534 26.8763 7.79584 25.1851C7.99421 24.8948 8.41721 24.2663 8.95421 23.4109C8.97987 23.8388 8.96443 24.2681 8.90809 24.6931C8.72044 25.7506 8.78846 26.8377 9.10646 27.8637C9.36792 28.8953 9.55688 29.944 9.67196 31.0021C9.68987 31.1625 9.76629 31.3106 9.8866 31.4182C10.0069 31.5258 10.1627 31.5853 10.3241 31.5852H12.8553C12.9501 31.5852 13.0438 31.5647 13.1299 31.525C13.216 31.4853 13.2925 31.4275 13.3541 31.3554C13.4157 31.2833 13.4609 31.1988 13.4867 31.1075C13.5125 31.0163 13.5181 30.9206 13.5033 30.8269C13.497 30.7861 12.885 26.8767 12.8358 25.1854C13.0376 24.8907 13.4733 24.2453 14.0208 23.3663C16.6233 23.6524 19.5037 23.6877 22.482 23.7233C22.77 23.7267 23.0647 23.7312 23.3561 23.7349C23.3665 24.0556 23.3492 24.3765 23.3043 24.6942C23.1185 25.7512 23.1869 26.8372 23.5038 27.8626C23.7641 28.8947 23.9521 29.9437 24.0663 31.0021C24.0842 31.1625 24.1607 31.3106 24.281 31.4182C24.4013 31.5258 24.5571 31.5853 24.7185 31.5852H27.2497C27.3445 31.5851 27.4382 31.5646 27.5243 31.5249C27.6103 31.4852 27.6868 31.4273 27.7484 31.3553C27.81 31.2832 27.8553 31.1987 27.8811 31.1075C27.907 31.0163 27.9128 30.9206 27.8981 30.8269C27.8928 30.7861 27.2812 26.8752 27.2321 25.1847C27.405 24.9316 27.7496 24.4178 28.1925 23.7196C28.2596 23.7132 28.332 23.7124 28.3983 23.7053C28.4085 24.0367 28.3904 24.3684 28.3443 24.6968C28.1566 25.7523 28.2241 26.8374 28.5412 27.8614C28.8022 28.8932 28.9903 29.942 29.1041 31.0002C29.1219 31.1608 29.1983 31.3091 29.3187 31.4169C29.4391 31.5246 29.595 31.5841 29.7566 31.5841H32.2878C32.3826 31.5841 32.4762 31.5636 32.5622 31.5239C32.6483 31.4843 32.7247 31.4265 32.7863 31.3545C32.8479 31.2825 32.8931 31.1981 32.9189 31.1069C32.9447 31.0158 32.9505 30.9201 32.9358 30.8266C32.9298 30.7857 32.3212 26.8756 32.2721 25.1843C33.4765 23.4104 34.5841 21.5727 35.5901 19.6793C35.5972 19.6677 35.604 19.6561 35.6096 19.6463C36.1884 18.4517 36.6508 17.204 36.9903 15.9207C37.0841 15.6034 37.1906 15.2457 37.2225 15.1707C37.5855 14.4998 37.9286 13.8668 39.7398 14.4421C42.3648 15.2731 43.4805 14.3209 44.4303 12.5161C45.5115 10.4577 44.3111 9.30981 43.5937 8.62431ZM42.5493 4.94556C42.441 5.10193 42.3382 5.24931 42.24 5.38956C41.9306 5.83243 41.6775 6.20143 41.4581 6.54718C41.2428 6.35256 41.0148 6.15306 40.7752 5.95131C41.2241 5.41086 41.8551 5.05316 42.5493 4.94556ZM12.0922 30.2727H10.9053C10.7836 29.3575 10.609 28.4501 10.3826 27.5551C10.1067 26.7012 10.045 25.7927 10.203 24.9094C10.2963 24.1713 10.3038 23.4248 10.2251 22.6849C11.003 22.8916 11.7917 23.0556 12.5876 23.1762C12.0273 24.0526 11.6441 24.6012 11.6392 24.6083C11.5619 24.7181 11.5203 24.849 11.52 24.9833C11.6175 26.7553 11.8085 28.5209 12.0922 30.2727ZM26.4885 30.2727H25.3012C25.1798 29.3576 25.0059 28.4502 24.7803 27.5551C24.5056 26.7011 24.4436 25.7928 24.6 24.9094C24.6555 24.5273 24.6782 24.1412 24.6678 23.7552C25.1497 23.7634 25.632 23.7721 26.1082 23.7848C26.2728 23.7893 26.4277 23.7848 26.589 23.7848C26.2515 24.2978 26.0385 24.6057 26.0351 24.6098C25.9583 24.7198 25.9169 24.8506 25.9166 24.9848C26.014 26.7563 26.2049 28.5213 26.4885 30.2727ZM43.2678 11.9071C42.4976 13.3714 41.9362 13.7629 40.1362 13.1922C37.629 12.3961 36.6723 13.4303 36.069 14.5456C35.9708 14.7566 35.8924 14.9763 35.8346 15.2018C35.4086 14.6367 34.9901 14.0618 34.5907 13.4899C34.5431 13.4155 34.4809 13.3515 34.4079 13.3017C34.3349 13.2519 34.2527 13.2174 34.166 13.2002C34.0794 13.1829 33.9901 13.1834 33.9036 13.2015C33.8172 13.2196 33.7352 13.2549 33.6628 13.3055C33.5903 13.356 33.5288 13.4206 33.4819 13.4955C33.435 13.5704 33.4037 13.654 33.3899 13.7412C33.3761 13.8285 33.38 13.9176 33.4015 14.0033C33.423 14.089 33.4615 14.1695 33.5148 14.2399C33.9453 14.8564 34.3965 15.4774 34.8562 16.0842C34.9175 16.1653 34.9969 16.2311 35.088 16.2763C35.1791 16.3214 35.2795 16.3448 35.3812 16.3444C35.4208 16.3417 35.4601 16.3354 35.4986 16.3257C35.2336 17.2455 34.8886 18.1404 34.4677 19.0002C34.458 19.0163 34.4478 19.0332 34.4407 19.0471C34.4205 19.0846 34.4002 19.1221 34.3803 19.1596C34.0383 19.0816 33.5403 18.9687 32.9347 18.8348C32.8506 18.8162 32.7636 18.8144 32.6787 18.8295C32.5938 18.8445 32.5128 18.8762 32.4401 18.9226C32.3675 18.9689 32.3047 19.0292 32.2553 19.0998C32.206 19.1705 32.171 19.2501 32.1525 19.3343C32.1339 19.4185 32.1321 19.5055 32.1471 19.5903C32.1622 19.6752 32.1938 19.7562 32.2402 19.8289C32.2866 19.9015 32.3468 19.9643 32.4175 20.0137C32.4881 20.063 32.5678 20.098 32.652 20.1166C33.0645 20.2077 33.4278 20.2891 33.7245 20.3566C32.3703 22.7502 31.0901 24.5877 31.0751 24.6087C30.9982 24.7186 30.9568 24.8495 30.9566 24.9837C31.0535 26.7549 31.2434 28.5199 31.5255 30.2712H30.3378C30.2173 29.3554 30.0433 28.4475 29.817 27.5521C29.542 26.6992 29.4809 25.7919 29.6388 24.9098C29.7248 24.2495 29.7388 23.5819 29.6805 22.9186C29.6748 22.8271 29.65 22.7378 29.6077 22.6565C29.5655 22.5751 29.5066 22.5036 29.435 22.4463C29.3634 22.3891 29.2807 22.3475 29.192 22.3242C29.1034 22.3009 29.0108 22.2964 28.9203 22.3111C28.0024 22.4512 27.0733 22.5048 26.1453 22.4712C25.3012 22.4487 24.4492 22.4356 23.6032 22.4243C23.8208 21.8417 24.0024 21.2464 24.147 20.6416C24.1867 20.4721 24.1576 20.2937 24.0659 20.1458C23.9742 19.9978 23.8274 19.8923 23.658 19.8526C23.4885 19.8128 23.3102 19.8419 23.1622 19.9337C23.0142 20.0254 22.9087 20.1721 22.869 20.3416C22.7072 21.0389 22.4912 21.7225 22.2228 22.3861C22.2202 22.3924 22.2202 22.3992 22.218 22.4052C18.7545 22.3636 15.4376 22.3099 12.6067 21.8472C12.7638 21.5753 12.9723 21.2393 13.2386 20.8553C13.2878 20.7845 13.3226 20.7047 13.341 20.6204C13.3594 20.5361 13.3611 20.4491 13.3458 20.3642C13.3306 20.2793 13.2987 20.1982 13.2522 20.1256C13.2056 20.053 13.1452 19.9903 13.0743 19.9411C13.0035 19.8918 12.9237 19.857 12.8394 19.8386C12.7552 19.8202 12.6681 19.8186 12.5832 19.8338C12.4983 19.8491 12.4172 19.8809 12.3446 19.9275C12.272 19.9741 12.2093 20.0345 12.1601 20.1053C11.8282 20.5809 11.525 21.0759 11.2522 21.5877C10.6446 21.452 10.0457 21.2802 9.45859 21.0732C9.45634 21.0732 9.45371 21.0732 9.45109 21.0732C9.33521 21.0259 8.78434 20.7991 8.04821 20.4278C7.97119 20.3883 7.88712 20.3644 7.80083 20.3575C7.71453 20.3506 7.62773 20.3609 7.54542 20.3877C7.46311 20.4145 7.38691 20.4573 7.32122 20.5137C7.25553 20.5701 7.20164 20.6389 7.16266 20.7162C7.12368 20.7935 7.10038 20.8777 7.0941 20.964C7.08781 21.0504 7.09867 21.1371 7.12605 21.2192C7.15343 21.3014 7.19679 21.3772 7.25362 21.4425C7.31046 21.5078 7.37965 21.5612 7.45721 21.5997C7.77221 21.7587 8.05234 21.8911 8.28671 21.9979C7.34359 23.5441 6.60709 24.6001 6.59921 24.6121C6.52224 24.722 6.48088 24.8529 6.48071 24.9871C6.57883 26.7585 6.77072 28.5234 7.05559 30.2746H5.86871C5.74676 29.3581 5.57146 28.4496 5.34371 27.5536C5.06856 26.7022 5.00612 25.7965 5.16184 24.9154C5.35684 23.7507 5.14271 22.0426 4.87534 20.0644C5.05721 20.1934 5.24359 20.3213 5.43784 20.4481C5.58371 20.5343 5.7573 20.5608 5.92225 20.522C6.08721 20.4831 6.23076 20.382 6.32283 20.2397C6.4149 20.0975 6.44836 19.9251 6.41621 19.7587C6.38406 19.5923 6.28879 19.4448 6.15034 19.3471C5.61564 19.0037 5.10632 18.6224 4.62634 18.2059C4.47634 17.0258 4.34846 15.7924 4.30721 14.5823C4.47596 14.5913 4.65746 14.5962 4.85546 14.5962C5.16671 14.5962 5.51696 14.5849 5.89646 14.5628C6.05402 14.5561 6.20419 14.4942 6.32072 14.3879C6.43726 14.2817 6.51273 14.1378 6.53396 13.9816C6.54553 13.8862 6.53593 13.7895 6.50584 13.6982C6.47574 13.607 6.42591 13.5236 6.35987 13.4538C6.29384 13.3841 6.21324 13.3297 6.1238 13.2947C6.03437 13.2596 5.93831 13.2447 5.84246 13.2511C5.32349 13.2875 4.80278 13.2924 4.28321 13.2657C4.26784 11.0284 4.86784 9.32518 6.09184 8.20806C7.46996 6.95181 9.57034 6.48906 12.1668 6.86931C12.5902 6.93156 13.0027 6.98818 13.413 7.04368C13.4055 7.22443 13.4021 7.41306 13.4058 7.61293C13.4091 7.78476 13.4796 7.94846 13.6022 8.06886C13.7249 8.18926 13.8899 8.25674 14.0617 8.25681H14.0745C14.1606 8.2552 14.2456 8.23662 14.3246 8.20214C14.4036 8.16766 14.475 8.11795 14.5348 8.05586C14.5945 7.99376 14.6415 7.9205 14.6729 7.84025C14.7043 7.76 14.7197 7.67435 14.718 7.58818C14.7153 7.45431 14.718 7.33393 14.7225 7.21131C17.4726 7.57125 20.2443 7.74078 23.0178 7.71868C23.0073 7.93393 23.0013 8.16118 23.0013 8.40643C23.0013 8.69706 23.0085 9.00043 23.0208 9.31468C23.0276 9.48405 23.0996 9.64423 23.2218 9.76172C23.344 9.87921 23.5068 9.9449 23.6763 9.94506H23.7026C23.8765 9.93813 24.0406 9.86243 24.1587 9.73459C24.2768 9.60675 24.3394 9.43724 24.3326 9.26331C24.321 8.96706 24.3138 8.68093 24.3138 8.40681C24.3138 8.13868 24.321 7.89493 24.3345 7.66918C26.1423 7.60396 27.932 7.28536 29.6512 6.72268C29.7507 7.24276 29.8987 7.75237 30.0933 8.24481C30.1239 8.32584 30.1701 8.40003 30.2294 8.46311C30.2888 8.52619 30.36 8.5769 30.439 8.61232C30.518 8.64774 30.6033 8.66718 30.6898 8.66951C30.7764 8.67184 30.8625 8.65701 30.9433 8.62589C31.0242 8.59476 31.098 8.54796 31.1606 8.48816C31.2233 8.42837 31.2734 8.35677 31.3083 8.27749C31.3431 8.19822 31.3619 8.11283 31.3636 8.02626C31.3653 7.93968 31.3498 7.85363 31.3181 7.77306C31.122 7.28955 30.981 6.7855 30.8977 6.27043L31.1268 6.18643C31.3518 6.10393 31.5671 6.02518 31.7778 5.94868C31.8028 6.24957 31.8595 6.54697 31.947 6.83593C32.0005 7.00044 32.1168 7.13716 32.2706 7.21634C32.4244 7.29553 32.6033 7.31078 32.7683 7.25879C32.9333 7.20679 33.071 7.09174 33.1517 6.93867C33.2323 6.78561 33.2492 6.6069 33.1987 6.44143C32.826 5.25981 33.2823 3.17293 33.6326 1.97368C34.4201 2.30856 35.7176 3.25618 35.3898 5.82268C35.3715 5.99353 35.4209 6.16473 35.5274 6.29957C35.6339 6.43441 35.789 6.52214 35.9595 6.54392C36.1299 6.56571 36.3021 6.51983 36.4391 6.41612C36.5761 6.31241 36.6669 6.15913 36.6922 5.98918C36.7385 5.62962 36.7584 5.26715 36.7518 4.90468C36.8423 4.92865 36.9314 4.95732 37.0188 4.99056C36.9618 5.18331 36.9063 5.38356 36.8625 5.59693C36.8259 5.7671 36.8584 5.94484 36.9528 6.09105C37.0473 6.23726 37.1959 6.33996 37.3661 6.37656C37.5363 6.41316 37.714 6.38066 37.8602 6.28621C38.0064 6.19176 38.1091 6.0431 38.1457 5.87293C38.4633 4.39543 39.0896 3.61318 39.7331 3.29593C39.6892 3.48118 39.6468 3.65631 39.6067 3.82093C39.2471 5.31118 39.03 6.21043 39.1942 7.35456C39.2167 7.51061 39.2947 7.65334 39.4138 7.75663C39.533 7.85993 39.6853 7.91687 39.843 7.91706C39.8743 7.91702 39.9057 7.91477 39.9367 7.91031C40.0645 7.89211 40.1841 7.83661 40.2805 7.75076C40.3769 7.66491 40.4458 7.55252 40.4786 7.42768C41.1607 8.03706 41.7198 8.60181 42.1331 9.02031C42.303 9.19243 42.4458 9.33718 42.5587 9.44593L42.6888 9.57118C43.3852 10.2409 43.89 10.7232 43.2678 11.9071Z" stroke="#3399FF" stroke-width="8" mask="url(#path-1-inside-1_302_2906)"/>
</g>
<path id="Vector_2" d="M40.6428 10.9923C39.9622 10.7781 39.254 10.6644 38.5405 10.6548C38.3665 10.6548 38.1996 10.7239 38.0765 10.847C37.9534 10.9701 37.8843 11.137 37.8843 11.311C37.8843 11.4851 37.9534 11.652 38.0765 11.7751C38.1996 11.8981 38.3665 11.9673 38.5405 11.9673C39.1269 11.9774 39.7088 12.0726 40.2678 12.25C40.3286 12.2683 40.3918 12.2775 40.4553 12.2774C40.6131 12.2777 40.7658 12.2211 40.8853 12.118C41.0048 12.0148 41.0831 11.8721 41.1059 11.7159C41.1286 11.5597 41.0944 11.4005 41.0093 11.2675C40.9243 11.1346 40.7941 11.0371 40.6428 10.9923Z" fill="#3399FF"/>
<path id="Vector_3" d="M16.3324 15.8072C16.3324 15.8023 16.2064 15.3973 16.0272 14.746C15.9788 14.5806 15.8674 14.441 15.717 14.357C15.5666 14.2731 15.3892 14.2517 15.2231 14.2975C15.057 14.3432 14.9156 14.4524 14.8293 14.6015C14.7431 14.7505 14.7188 14.9276 14.7619 15.0943C14.9494 15.7727 15.0784 16.1935 15.0784 16.1935C15.1264 16.3451 15.2287 16.4737 15.3657 16.5546C15.3217 16.5782 15.2807 16.6069 15.2434 16.6401C14.6677 17.1575 14.1205 17.7058 13.6043 18.2826C13.545 18.3465 13.499 18.4217 13.4691 18.5036C13.4391 18.5855 13.4258 18.6726 13.4299 18.7597C13.434 18.8468 13.4554 18.9322 13.4929 19.011C13.5304 19.0897 13.5833 19.1602 13.6483 19.2183C13.7134 19.2764 13.7893 19.321 13.8718 19.3494C13.9543 19.3777 14.0416 19.3894 14.1286 19.3837C14.2156 19.3779 14.3007 19.3549 14.3787 19.3159C14.4567 19.277 14.5262 19.2228 14.5831 19.1567C15.0673 18.6155 15.5806 18.101 16.1206 17.6155C16.1847 17.5579 16.2368 17.4882 16.274 17.4104C16.3111 17.3326 16.3326 17.2483 16.3371 17.1622C16.3416 17.0762 16.3291 16.9901 16.3003 16.9088C16.2716 16.8276 16.227 16.7528 16.1693 16.6888C16.1273 16.6432 16.0789 16.6039 16.0257 16.5722C16.1566 16.499 16.2584 16.3831 16.3142 16.2439C16.37 16.1047 16.3765 15.9506 16.3324 15.8072Z" fill="#3399FF"/>
<path id="Vector_4" d="M23.9533 14.4373H23.9848C24.1587 14.429 24.3221 14.3519 24.4392 14.2231C24.5563 14.0943 24.6174 13.9242 24.6092 13.7503C24.5717 12.9456 24.5136 12.1378 24.4678 11.4895C24.4555 11.3158 24.3748 11.1542 24.2433 11.0401C24.1118 10.926 23.9404 10.8687 23.7668 10.881C23.5931 10.8933 23.4314 10.9741 23.3173 11.1056C23.2032 11.237 23.146 11.4084 23.1583 11.5821C23.1936 12.0763 23.2333 12.6193 23.2648 13.1841C22.6562 13.2917 22.0588 13.4001 21.4922 13.5216C21.3341 13.556 21.1942 13.6475 21.0995 13.7787C21.0047 13.9098 20.9617 14.0714 20.9787 14.2323C20.9957 14.3932 21.0716 14.5421 21.1917 14.6506C21.3117 14.759 21.4676 14.8193 21.6294 14.8198C21.6761 14.8196 21.7226 14.8146 21.7682 14.8048C22.4113 14.6665 23.1013 14.5423 23.8089 14.4201C23.8563 14.4312 23.9047 14.4369 23.9533 14.4373Z" fill="#3399FF"/>
<path id="Vector_5" d="M32.2395 9.73552C32.1558 9.58428 32.0159 9.47215 31.85 9.4235C31.6841 9.37485 31.5058 9.39361 31.3536 9.47569C31.2015 9.55778 31.0879 9.69656 31.0375 9.86191C30.9872 10.0273 31.004 10.2058 31.0845 10.3588C31.2379 10.6434 31.4051 10.9393 31.5825 11.243C31.1355 11.393 30.6866 11.5408 30.2385 11.6739C30.0872 11.7187 29.957 11.8166 29.872 11.9495C29.7869 12.0825 29.7526 12.2417 29.7754 12.3979C29.7982 12.5541 29.8765 12.6968 29.996 12.7999C30.1155 12.9031 30.2682 12.9597 30.426 12.9594C30.4895 12.9595 30.5527 12.9503 30.6135 12.932C31.1726 12.7655 31.7333 12.5806 32.2894 12.3875C32.3917 12.5216 32.5418 12.611 32.7084 12.6369C32.875 12.6629 33.0452 12.6235 33.1835 12.5269C33.3217 12.4303 33.4172 12.284 33.4501 12.1186C33.483 11.9532 33.4507 11.7815 33.36 11.6394C32.9355 10.9678 32.5586 10.3273 32.2395 9.73552Z" fill="#3399FF"/>
<path id="Vector_6" d="M28.8912 12.7316C28.8509 12.5623 28.7451 12.4159 28.597 12.3245C28.4488 12.2331 28.2705 12.2042 28.1011 12.2441C27.4205 12.4061 26.7106 12.5572 25.9306 12.7057C25.7705 12.7367 25.6277 12.8262 25.53 12.9567C25.4322 13.0872 25.3866 13.2494 25.4018 13.4117C25.4171 13.5741 25.4922 13.7249 25.6125 13.8349C25.7328 13.945 25.8898 14.0063 26.0529 14.0069C26.0944 14.0069 26.1358 14.003 26.1766 13.9953C26.9761 13.8427 27.7051 13.6874 28.4049 13.5213C28.574 13.481 28.7203 13.3752 28.8115 13.2271C28.9027 13.079 28.9314 12.9008 28.8912 12.7316Z" fill="#3399FF"/>
<path id="Vector_7" d="M19.2429 14.1423C18.4891 14.4072 17.7678 14.7565 17.0926 15.1837C17.0184 15.2293 16.954 15.2892 16.9031 15.3599C16.8523 15.4306 16.8161 15.5108 16.7965 15.5956C16.777 15.6805 16.7745 15.7685 16.7893 15.8543C16.8041 15.9401 16.8358 16.0222 16.8826 16.0956C16.9295 16.1691 16.9904 16.2325 17.062 16.2821C17.1336 16.3318 17.2143 16.3667 17.2995 16.3848C17.3847 16.4029 17.4727 16.4039 17.5583 16.3877C17.6438 16.3714 17.7253 16.3383 17.798 16.2903C18.3906 15.9162 19.0235 15.6102 19.6846 15.3779C19.8487 15.3192 19.9828 15.1978 20.0573 15.0402C20.1319 14.8827 20.1408 14.702 20.0821 14.5379C20.0234 14.3738 19.902 14.2397 19.7444 14.1652C19.5869 14.0907 19.4062 14.0817 19.2421 14.1404L19.2429 14.1423Z" fill="#3399FF"/>
<path id="Vector_8" d="M14.625 13.1376C14.6776 13.1538 14.7321 13.1632 14.787 13.1654C14.836 13.1654 14.8848 13.1599 14.9325 13.1489C15.0166 13.1298 15.0961 13.0944 15.1665 13.0446C15.2369 12.9949 15.2967 12.9317 15.3427 12.8588C15.3887 12.7859 15.4198 12.7046 15.4344 12.6196C15.4489 12.5347 15.4466 12.4477 15.4275 12.3636C15.2322 11.5011 15.0739 10.6956 14.958 9.96737C14.9281 9.79788 14.8328 9.64694 14.6926 9.54708C14.5524 9.44721 14.3786 9.4064 14.2087 9.43345C14.0387 9.4605 13.8861 9.55324 13.7839 9.69169C13.6817 9.83014 13.6379 10.0032 13.662 10.1736C13.7569 10.7699 13.8795 11.416 14.0254 12.0977C13.6433 12.1697 13.1175 12.2661 12.4965 12.3741C12.3471 12.3974 12.2098 12.4705 12.1071 12.5815C12.0043 12.6925 11.942 12.8349 11.9303 12.9857C11.9251 13.075 11.9383 13.1644 11.9688 13.2484C11.9994 13.3325 12.0468 13.4094 12.1081 13.4744C12.1695 13.5395 12.2434 13.5914 12.3255 13.6269C12.4075 13.6624 12.496 13.6808 12.5854 13.681C12.6231 13.681 12.6608 13.6778 12.6979 13.6712C13.2893 13.5685 13.7993 13.4755 14.184 13.4035C14.358 13.3703 14.5144 13.276 14.625 13.1376Z" fill="#3399FF"/>
<path id="Vector_9" d="M10.2245 12.7445C9.45765 12.8607 8.7354 12.9597 8.07765 13.0392C7.92449 13.0543 7.78113 13.1215 7.67152 13.2295C7.56191 13.3375 7.49269 13.4799 7.4754 13.6328C7.46706 13.7239 7.47779 13.8156 7.5069 13.9022C7.53601 13.9889 7.58287 14.0685 7.64449 14.136C7.7061 14.2035 7.78111 14.2574 7.86474 14.2943C7.94836 14.3312 8.03875 14.3502 8.13015 14.3502C8.15648 14.3503 8.18278 14.3486 8.2089 14.3453C8.8989 14.2625 9.65678 14.1578 10.4619 14.0363C10.5564 14.022 10.6466 13.9872 10.7263 13.9344C10.8059 13.8816 10.8731 13.8121 10.9231 13.7306C10.9731 13.6492 11.0047 13.5578 11.0157 13.4628C11.0267 13.3679 11.0169 13.2717 10.9869 13.181C10.9311 13.0304 10.8242 12.9042 10.6849 12.8244C10.5455 12.7447 10.3826 12.7164 10.2245 12.7445Z" fill="#3399FF"/>
<path id="Vector_10" d="M26.2545 17.5279C25.5641 17.4237 25.0283 17.361 24.6086 17.3367C24.6338 16.9193 24.6499 16.4895 24.6555 16.0377C24.6576 15.8637 24.5905 15.696 24.469 15.5714C24.3475 15.4469 24.1815 15.3757 24.0075 15.3735H23.9993C23.8266 15.3735 23.661 15.4415 23.5381 15.5628C23.4153 15.6841 23.3452 15.8489 23.343 16.0215C23.3336 16.8038 23.2935 17.5185 23.2219 18.207C23.2128 18.2927 23.2208 18.3793 23.2452 18.4619C23.2696 18.5445 23.3101 18.6215 23.3643 18.6885C23.4185 18.7554 23.4853 18.8111 23.561 18.8522C23.6367 18.8933 23.7197 18.9191 23.8054 18.9282C23.8283 18.9304 23.8515 18.9315 23.874 18.9315C23.9812 18.9312 24.0867 18.9044 24.1811 18.8537C24.2755 18.8029 24.356 18.7297 24.4155 18.6405C24.9654 18.6746 25.5132 18.7364 26.0569 18.8258C26.0897 18.8306 26.1228 18.8329 26.1559 18.8329C26.3212 18.8326 26.4803 18.7698 26.6014 18.6572C26.7225 18.5446 26.7966 18.3904 26.8089 18.2256C26.8212 18.0607 26.7708 17.8972 26.6678 17.7679C26.5649 17.6385 26.4168 17.5528 26.2534 17.5279H26.2545Z" fill="#3399FF"/>
<path id="Vector_11" d="M30.7227 18.3599C29.9978 18.2099 29.2392 18.0566 28.5001 17.9167C28.4154 17.9007 28.3285 17.9015 28.2441 17.9191C28.1598 17.9367 28.0797 17.9708 28.0086 18.0193C27.9374 18.0679 27.8765 18.13 27.8293 18.202C27.7821 18.2741 27.7496 18.3548 27.7336 18.4394C27.7176 18.5241 27.7184 18.6111 27.736 18.6954C27.7536 18.7797 27.7877 18.8598 27.8362 18.931C27.8848 19.0021 27.9468 19.0631 28.0189 19.1102C28.091 19.1574 28.1717 19.1899 28.2563 19.2059C28.9872 19.3443 29.738 19.4958 30.4553 19.6451C30.6258 19.6805 30.8033 19.6468 30.9489 19.5514C31.0944 19.456 31.1961 19.3066 31.2316 19.1362C31.267 18.9658 31.2333 18.7883 31.1379 18.6427C31.0425 18.4971 30.8931 18.3954 30.7227 18.3599Z" fill="#3399FF"/>
</g>
</svg>
