<svg width="49" height="48" viewBox="0 0 49 48" fill="none" xmlns="http://www.w3.org/2000/svg">
<path d="M17.486 9.62585L17.486 9.62586C18.0527 10.4762 17.8228 11.625 16.9723 12.1917L16.9723 12.1917C16.674 12.3905 16.3243 12.4985 15.9656 12.5022L15.9603 12.5022V12.5022C14.7229 12.502 13.6677 11.6056 13.4672 10.3847C13.2039 8.80723 13.2039 7.19703 13.4672 5.61952C13.667 4.39927 14.7212 3.50324 15.9578 3.50274L15.9622 3.50274V3.50276C16.9842 3.51139 17.8054 4.34683 17.7968 5.36867L17.486 9.62585ZM17.486 9.62585L17.4845 9.62364L17.4376 9.55403C17.4374 9.55379 17.4373 9.55356 17.4371 9.55332C16.8108 8.61598 16.8101 7.3939 17.4355 6.456L17.4368 6.45401L17.4892 6.37467L17.486 9.62585ZM17.9346 9.21894L17.9346 9.21895L17.9361 9.22111L17.9829 9.29062C17.9831 9.29092 17.9833 9.29122 17.9835 9.29152C18.2485 9.68835 18.3918 10.154 18.3958 10.6312C18.4074 11.9836 17.3208 13.0895 15.9686 13.1021L15.9644 13.1021L15.963 13.1021C14.4308 13.1063 13.1223 11.9976 12.8749 10.4856L12.8746 10.4838C12.5997 8.84074 12.5997 7.16341 12.8746 5.52033L12.8746 5.52034L12.8749 5.51872C13.1226 4.00725 14.4306 2.89905 15.9621 2.90284C16.4402 2.906 16.9068 3.04891 17.3046 3.31399L17.3046 3.31399C18.4308 4.06442 18.7354 5.58558 17.985 6.71168L17.9849 6.71166L17.9817 6.7166L17.9329 6.79182C17.4442 7.52718 17.4448 8.48411 17.9346 9.21894Z" stroke="#FF7C33"/>
<path d="M35.6993 3.20312C33.9321 3.20312 32.4995 4.63573 32.4995 6.40291C32.4995 8.17009 33.9321 9.6027 35.6993 9.6027C37.4665 9.6027 38.8991 8.17009 38.8991 6.40291C38.8991 4.63573 37.4665 3.20312 35.6993 3.20312ZM35.6993 8.0028C34.8157 8.0028 34.0994 7.28655 34.0994 6.40291C34.0994 5.51927 34.8157 4.80302 35.6993 4.80302C36.5829 4.80302 37.2992 5.51927 37.2992 6.40291C37.2992 7.28655 36.5828 8.0028 35.6993 8.0028Z" fill="#FF7C33"/>
<path d="M5.30135 24.8018C3.53417 24.8018 2.10156 26.2344 2.10156 28.0015C2.10156 29.7687 3.53417 31.2013 5.30135 31.2013C7.06853 31.2013 8.50114 29.7687 8.50114 28.0015C8.50114 26.2344 7.06853 24.8018 5.30135 24.8018ZM5.30135 29.6014C4.41771 29.6014 3.70146 28.8852 3.70146 28.0015C3.70146 27.1179 4.41771 26.4017 5.30135 26.4017C6.18499 26.4017 6.90124 27.1179 6.90124 28.0015C6.90124 28.8852 6.18489 29.6014 5.30135 29.6014Z" fill="#FF7C33"/>
<path d="M21.3004 32.001C19.5332 32.001 18.1006 33.4336 18.1006 35.2008C18.1006 36.9679 19.5332 38.4006 21.3004 38.4006C23.0676 38.4006 24.5002 36.9679 24.5002 35.2008C24.5002 33.4336 23.0676 32.001 21.3004 32.001ZM21.3004 36.8007C20.4167 36.8007 19.7005 36.0844 19.7005 35.2008C19.7005 34.3171 20.4167 33.6009 21.3004 33.6009C22.184 33.6009 22.9003 34.3171 22.9003 35.2008C22.9003 36.0844 22.1839 36.8007 21.3004 36.8007Z" fill="#FF7C33"/>
<path d="M16.5006 14.4023C14.7334 14.4023 13.3008 15.8349 13.3008 17.6021C13.3008 19.3693 14.7334 20.8019 16.5006 20.8019C18.2678 20.8019 19.7004 19.3693 19.7004 17.6021C19.7004 15.8349 18.2678 14.4023 16.5006 14.4023ZM16.5006 19.202C15.6169 19.202 14.9007 18.4858 14.9007 17.6021C14.9007 16.7185 15.6169 16.0022 16.5006 16.0022C17.3842 16.0022 18.1005 16.7185 18.1005 17.6021C18.1005 18.4858 17.3841 19.202 16.5006 19.202Z" fill="#FF7C33"/>
<path d="M38.0992 17.6021C36.332 17.6021 34.8994 19.0347 34.8994 20.8018C34.8994 22.569 36.332 24.0016 38.0992 24.0016C39.8664 24.0016 41.299 22.569 41.299 20.8018C41.299 19.0347 39.8664 17.6021 38.0992 17.6021ZM38.0992 22.4017C37.2156 22.4017 36.4993 21.6855 36.4993 20.8018C36.4993 19.9182 37.2156 19.2019 38.0992 19.2019C38.9828 19.2019 39.6991 19.9182 39.6991 20.8018C39.6991 21.6855 38.9827 22.4017 38.0992 22.4017Z" fill="#FF7C33"/>
<path d="M34.0992 27.2012C32.332 27.2012 30.8994 28.6338 30.8994 30.401C30.8994 32.1681 32.332 33.6007 34.0992 33.6007C35.8664 33.6007 37.299 32.1681 37.299 30.401C37.299 28.6338 35.8664 27.2012 34.0992 27.2012ZM34.0992 32.0009C33.2156 32.0009 32.4993 31.2846 32.4993 30.401C32.4993 29.5173 33.2156 28.8011 34.0992 28.8011C34.9828 28.8011 35.6991 29.5173 35.6991 30.401C35.6991 31.2846 34.9827 32.0009 34.0992 32.0009Z" fill="#FF7C33"/>
<path d="M23.7003 41.6006C21.9331 41.6006 20.5005 43.0332 20.5005 44.8004C20.5005 46.5676 21.9331 48.0002 23.7003 48.0002C25.4675 48.0002 26.9001 46.5676 26.9001 44.8004C26.9001 43.0332 25.4675 41.6006 23.7003 41.6006ZM23.7003 46.4003C22.8166 46.4003 22.1004 45.684 22.1004 44.8004C22.1004 43.9167 22.8166 43.2005 23.7003 43.2005C24.5839 43.2005 25.3002 43.9167 25.3002 44.8004C25.3002 45.684 24.5838 46.4003 23.7003 46.4003Z" fill="#FF7C33"/>
<path d="M45.2988 11.8648L44.6364 11.2024C43.614 10.1749 42.2231 9.59886 40.7735 9.60256H39.3112C38.8694 9.60256 38.5112 9.96073 38.5112 10.4025V11.8648C38.5075 13.3144 39.0836 14.7053 40.1111 15.7277L40.7735 16.3901C41.7959 17.4176 43.1868 17.9937 44.6364 17.99C45.8853 17.9887 46.8974 16.9766 46.8987 15.7277C46.9024 14.2781 46.3263 12.8872 45.2988 11.8648ZM44.6364 16.3901C43.6113 16.3928 42.6278 15.9855 41.9046 15.259L41.2423 14.5966C40.5157 13.8735 40.1084 12.8899 40.1111 11.8648V11.2024H40.7735C41.7986 11.1998 42.7822 11.607 43.5053 12.3336L44.1677 12.9959C44.8942 13.7191 45.3015 14.7026 45.2988 15.7277C45.2988 16.0935 45.0022 16.3901 44.6364 16.3901Z" fill="#FF7C33"/>
<path d="M31.2877 10.0147H29.8254C28.3758 10.011 26.9849 10.587 25.9625 11.6146L25.3001 12.2769C24.2726 13.2993 23.6965 14.6903 23.7002 16.1399C23.702 17.3886 24.7137 18.4003 25.9625 18.4021C27.4121 18.4058 28.8029 17.8297 29.8254 16.8022L30.4878 16.1399C31.5153 15.1174 32.0914 13.7265 32.0877 12.2769V10.8146C32.0877 10.3727 31.7295 10.0147 31.2877 10.0147ZM30.4878 12.2769C30.4905 13.302 30.0832 14.2856 29.3566 15.0087L28.6943 15.6711C27.9711 16.3976 26.9876 16.8049 25.9625 16.8022C25.5967 16.8022 25.3001 16.5056 25.3001 16.1399C25.2974 15.1147 25.7047 14.1312 26.4312 13.408L27.0936 12.7457C27.8167 12.0191 28.8003 11.6119 29.8254 11.6146H30.4878V12.2769Z" fill="#FF7C33"/>
<path d="M31.2877 20.4141H29.8254C28.3758 20.4104 26.9849 20.9864 25.9625 22.014L25.3001 22.6763C24.2726 23.6988 23.6965 25.0897 23.7002 26.5393C23.702 27.788 24.7137 28.7997 25.9625 28.8015C27.4121 28.8052 28.8029 28.2292 29.8254 27.2016L30.4878 26.5393C31.5153 25.5168 32.0914 24.1259 32.0877 22.6763V21.214C32.0877 20.7722 31.7295 20.4141 31.2877 20.4141ZM30.4878 22.6763C30.4905 23.7015 30.0832 24.685 29.3566 25.4081L28.6943 26.0705C27.9711 26.7971 26.9876 27.2043 25.9625 27.2016C25.5967 27.2016 25.3001 26.905 25.3001 26.5393C25.2974 25.5141 25.7047 24.5306 26.4312 23.8075L27.0936 23.1451C27.8167 22.4185 28.8003 22.0113 29.8254 22.014H30.4878V22.6763Z" fill="#FF7C33"/>
<path d="M8.50087 11.6714L7.46654 10.637C7.15416 10.3248 6.6478 10.3248 6.33542 10.637L5.30109 11.6714C4.27325 12.6933 3.69719 14.0841 3.70119 15.5335V16.4711C3.69719 17.9205 4.27325 19.3113 5.30109 20.3332C5.72506 20.758 6.30082 20.9961 6.90098 20.9948C7.50114 20.9961 8.0769 20.758 8.50087 20.3332C9.5287 19.3112 10.1048 17.9205 10.1008 16.4711V15.5335C10.1048 14.0841 9.5286 12.6933 8.50087 11.6714ZM8.50087 16.4711C8.50337 17.4959 8.0961 18.4791 7.36975 19.2021C7.11027 19.4596 6.69169 19.4596 6.43221 19.2021C5.70586 18.4791 5.29859 17.4959 5.30109 16.4711V15.5335C5.29859 14.5087 5.70586 13.5254 6.43221 12.8025L6.90098 12.3337L7.36975 12.8025C8.0961 13.5254 8.50337 14.5087 8.50087 15.5335V16.4711Z" fill="#FF7C33"/>
<path d="M12.8886 36.6631L12.2263 36.0008C11.2039 34.9733 9.81294 34.3972 8.36334 34.4009H6.90104C6.45927 34.4009 6.10109 34.7591 6.10109 35.2008V36.6631C6.09739 38.1127 6.67345 39.5037 7.70099 40.5261L8.36334 41.1884C9.38577 42.216 10.7767 42.792 12.2263 42.7883C13.4753 42.7874 14.4876 41.7751 14.4885 40.5261C14.4922 39.0765 13.9162 37.6856 12.8886 36.6631ZM12.2263 41.1884C11.2012 41.1911 10.2176 40.7839 9.49447 40.0573L8.83211 39.395C8.10556 38.6718 7.69829 37.6883 7.70099 36.6631V36.0008H8.36334C9.38847 35.9981 10.372 36.4054 11.0952 37.1319L11.7575 37.7943C12.4841 38.5174 12.8913 39.501 12.8886 40.5261C12.8886 40.8919 12.5921 41.1884 12.2263 41.1884Z" fill="#FF7C33"/>
<path d="M30.84 2.56129C30.7269 1.99633 30.4509 1.47696 30.0461 1.06709C28.7921 -0.193025 26.8091 -0.356714 25.3656 0.680717C23.9643 1.67965 22.7391 2.90477 21.7402 4.30608C20.7029 5.74938 20.8666 7.73215 22.1266 8.98576L22.1314 8.99056C22.6747 9.53433 23.4113 9.84071 24.18 9.84251C24.4784 9.84181 24.775 9.79651 25.06 9.70811C26.1005 9.39843 26.8817 8.53459 27.0855 7.46826L27.1047 7.37707C27.2387 6.70441 27.767 6.18005 28.4406 6.05076L28.5262 6.03316C30.1238 5.71338 31.1597 4.15898 30.84 2.56129ZM29.2381 3.53733C29.0958 4.01449 28.6993 4.37237 28.2102 4.46526L28.1246 4.48286C26.82 4.73915 25.7991 5.75778 25.54 7.06189L25.5208 7.15309C25.3746 7.88394 24.6636 8.3579 23.9328 8.21171C23.6761 8.16042 23.4399 8.03553 23.2529 7.85224C22.5491 7.15078 22.4582 6.04226 23.0385 5.23561C23.9351 3.9783 25.0346 2.87877 26.2919 1.98223C27.0977 1.40267 28.2046 1.49206 28.9069 2.19342C29.2595 2.54439 29.3872 3.06266 29.2381 3.53733Z" fill="#FF7C33"/>
<path d="M46.3492 32.1403C45.9707 31.5726 45.9707 30.833 46.3492 30.2653L46.4012 30.1853C47.3033 28.8285 46.9348 26.9973 45.578 26.095C45.0993 25.7767 44.5379 25.6052 43.9629 25.6016C42.1856 25.5967 40.6675 26.8826 40.38 28.6366C40.096 30.3343 40.096 32.0673 40.38 33.765C40.6671 35.5193 42.1853 36.8057 43.9629 36.8008H43.9693C45.5986 36.787 46.9082 35.4549 46.8943 33.8256C46.8894 33.2507 46.7167 32.6896 46.3972 32.2115L46.3492 32.1403ZM45.0181 33.0331L45.0661 33.1043C45.4783 33.7257 45.3087 34.5637 44.6873 34.976C44.4711 35.1193 44.2182 35.1974 43.9589 35.2009C42.9662 35.2007 42.1197 34.4815 41.9591 33.5018C41.7042 31.9784 41.7036 30.4234 41.9575 28.8998C42.1175 27.9202 42.964 27.2011 43.9565 27.2015C44.7023 27.2078 45.3016 27.8174 45.2953 28.5632C45.2931 28.8245 45.2152 29.0794 45.0709 29.2973L45.0181 29.3773C44.2785 30.4836 44.2785 31.9267 45.0181 33.0331Z" fill="#FF7C33"/>
<path d="M37.4213 39.504C36.4224 38.1027 35.1973 36.8776 33.796 35.8786C32.3528 34.841 30.3697 35.0047 29.1163 36.265L29.1115 36.2698C27.9692 37.431 27.9845 39.2984 29.1457 40.4407C29.5539 40.8423 30.0701 41.1164 30.6314 41.2295L30.7226 41.2487C31.3937 41.3816 31.918 41.9068 32.0497 42.5782L32.0673 42.6638C32.2717 43.7325 33.0557 44.5976 34.0991 44.906C34.3841 44.9945 34.6807 45.0398 34.9791 45.0404C35.7511 45.0388 36.4909 44.7306 37.0358 44.1837C38.2955 42.9299 38.4589 40.947 37.4213 39.504ZM35.9086 43.0485C35.3763 43.5714 34.5208 43.5638 33.998 43.0314C33.8137 42.8439 33.6882 42.6066 33.6368 42.3486L33.6192 42.263C33.362 40.9593 32.3436 39.9395 31.0402 39.6808L30.949 39.6616C30.218 39.5158 29.7437 38.805 29.8895 38.0741C29.9408 37.8172 30.0657 37.5808 30.249 37.3937C30.9509 36.6901 32.0595 36.5992 32.8664 37.1793C34.1237 38.0759 35.2233 39.1754 36.1198 40.4327C36.7005 41.2384 36.6111 42.3464 35.9086 43.0485Z" fill="#FF7C33"/>
<path d="M19.6723 23.255H19.6675C18.5063 22.1127 16.6389 22.128 15.4966 23.2892C15.095 23.6974 14.8209 24.2137 14.7079 24.7749L14.6887 24.8661C14.5558 25.5373 14.0305 26.0615 13.3591 26.1932L13.2735 26.2108C12.2075 26.4144 11.3436 27.1948 11.0329 28.2347C10.7051 29.2722 10.9827 30.4059 11.7528 31.1745C13.0067 32.4346 14.9898 32.5983 16.4333 31.5609C17.8346 30.5619 19.0598 29.3368 20.0587 27.9355C21.0961 26.4919 20.9324 24.5088 19.6723 23.255ZM18.7588 27.006C17.8622 28.2633 16.7627 29.3628 15.5054 30.2594C14.6995 30.8382 13.5929 30.7489 12.8904 30.0482C12.5389 29.6965 12.4125 29.1783 12.5624 28.7043C12.7047 28.2271 13.1012 27.8692 13.5903 27.7763L13.6759 27.7587C14.9805 27.5025 16.0014 26.4838 16.2605 25.1797L16.2797 25.0885C16.3729 24.6003 16.7305 24.2048 17.2069 24.063C17.3369 24.0226 17.4723 24.0018 17.6085 24.0014C17.9592 24.002 18.2957 24.1412 18.5444 24.3886C19.248 25.0903 19.3388 26.1989 18.7588 27.006Z" fill="#FF7C33"/>
</svg>
