<svg width="49" height="48" viewBox="0 0 49 48" fill="none" xmlns="http://www.w3.org/2000/svg">
<g id="energy-drink 1">
<path id="Vector" d="M43.3247 11.2354L40.3423 9.531C40.2276 9.46513 40.1323 9.3702 40.0659 9.25577C39.9996 9.14134 39.9645 9.01145 39.9644 8.87918V7.5C40.1633 7.5 40.354 7.42098 40.4947 7.28033C40.6353 7.13968 40.7144 6.94891 40.7144 6.75V1.5C40.7144 1.30109 40.6353 1.11032 40.4947 0.96967C40.354 0.829018 40.1633 0.75 39.9644 0.75H30.9644C30.7654 0.75 30.5747 0.829018 30.434 0.96967C30.2934 1.11032 30.2144 1.30109 30.2144 1.5V6.75C30.2144 6.94891 30.2934 7.13968 30.434 7.28033C30.5747 7.42098 30.7654 7.5 30.9644 7.5V8.87918C30.9642 9.01145 30.9291 9.14134 30.8628 9.25577C30.7965 9.3702 30.7011 9.46513 30.5864 9.531L27.6044 11.2354C27.0308 11.5639 26.5541 12.0378 26.2223 12.6094C25.8904 13.181 25.7152 13.83 25.7144 14.491V43.5C25.7155 44.4942 26.111 45.4473 26.814 46.1504C27.517 46.8534 28.4702 47.2488 29.4644 47.25H41.4644C42.4586 47.2488 43.4117 46.8534 44.1147 46.1504C44.8177 45.4473 45.2132 44.4942 45.2144 43.5V14.491C45.2135 13.8301 45.0384 13.1811 44.7066 12.6095C44.3748 12.0379 43.8982 11.5639 43.3247 11.2354ZM31.7144 2.25H39.2144V6H31.7144V2.25ZM43.7144 43.5C43.7137 44.0965 43.4764 44.6685 43.0546 45.0903C42.6328 45.5121 42.0609 45.7493 41.4644 45.75H29.4644C28.8678 45.7493 28.2959 45.5121 27.8741 45.0903C27.4523 44.6685 27.215 44.0965 27.2144 43.5V39H43.7144V43.5ZM43.7144 37.5H27.2144V19.5H43.7144V37.5ZM43.7144 18H27.2144V14.491C27.2149 14.0944 27.32 13.7051 27.5191 13.3621C27.7181 13.0192 28.0041 12.7348 28.3481 12.5376L31.3313 10.8332C31.6752 10.6357 31.9609 10.3511 32.1598 10.0081C32.3587 9.66507 32.4637 9.2757 32.4644 8.87918V7.5H38.4644V8.87918C38.4649 9.27579 38.57 9.66525 38.7691 10.0083C38.9681 10.3514 39.2541 10.6359 39.5981 10.8332L42.5806 12.5376C42.9246 12.7348 43.2106 13.0192 43.4096 13.3621C43.6087 13.7051 43.7138 14.0944 43.7144 14.491V18Z" fill="#FFA31A"/>
<path id="Vector_2" d="M30.9646 30H34.615L33.9704 35.157C33.949 35.3285 33.9875 35.5021 34.0793 35.6485C34.1711 35.7949 34.3107 35.9051 34.4744 35.9605C34.5517 35.9868 34.6329 36.0001 34.7146 36C34.8457 36.0001 34.9746 35.9657 35.0884 35.9005C35.2021 35.8352 35.2967 35.7412 35.3628 35.6279L40.6128 26.6279C40.6793 26.5139 40.7146 26.3844 40.715 26.2524C40.7154 26.1205 40.681 25.9907 40.6153 25.8763C40.5495 25.7619 40.4547 25.6668 40.3405 25.6008C40.2262 25.5347 40.0966 25.4999 39.9646 25.5H37.5395L39.1076 22.886C39.1759 22.7721 39.2128 22.6423 39.2145 22.5095C39.2162 22.3768 39.1826 22.246 39.1172 22.1305C39.0519 22.015 38.957 21.9189 38.8423 21.8521C38.7277 21.7852 38.5973 21.75 38.4646 21.75H33.9646C33.8195 21.75 33.6775 21.792 33.5558 21.8711C33.4341 21.9501 33.338 22.0628 33.279 22.1953L30.279 28.9453C30.2282 29.0596 30.2068 29.1846 30.2167 29.3092C30.2266 29.4338 30.2674 29.554 30.3355 29.6588C30.4037 29.7636 30.4969 29.8497 30.6067 29.9093C30.7166 29.9688 30.8396 30 30.9646 30ZM34.4516 23.25H37.1396L35.5715 25.8641C35.5032 25.9779 35.4664 26.1077 35.4647 26.2405C35.463 26.3732 35.4965 26.504 35.5619 26.6195C35.6273 26.735 35.7222 26.8311 35.8369 26.8979C35.9515 26.9648 36.0819 27 36.2146 27H38.6587L35.9137 31.7065L36.2089 29.343C36.2222 29.2374 36.2129 29.1303 36.1816 29.0286C36.1502 28.9269 36.0976 28.8331 36.0272 28.7534C35.9568 28.6736 35.8702 28.6098 35.7732 28.5661C35.6762 28.5224 35.571 28.4999 35.4646 28.5H32.1189L34.4516 23.25Z" fill="#FFA31A"/>
<path id="Vector_3" d="M22.7144 7.49999C22.7144 7.30108 22.6353 7.11031 22.4947 6.96966C22.354 6.82901 22.1633 6.74999 21.9644 6.74999H16.1744L16.5318 5.31959C16.6675 4.77738 16.6777 4.21138 16.5618 3.66461C16.446 3.11783 16.207 2.60466 15.8631 2.16409C15.5191 1.72352 15.0793 1.36714 14.577 1.12202C14.0747 0.876909 13.5231 0.749512 12.9642 0.749512C12.4053 0.749512 11.8537 0.876909 11.3514 1.12202C10.8491 1.36714 10.4093 1.72352 10.0654 2.16409C9.72142 2.60466 9.48244 3.11783 9.36656 3.66461C9.25068 4.21138 9.26096 4.77738 9.39661 5.31959L9.75436 6.74999H3.96436C3.76544 6.74999 3.57468 6.82901 3.43403 6.96966C3.29337 7.11031 3.21436 7.30108 3.21436 7.49999C3.21436 7.6989 3.29337 7.88967 3.43403 8.03032C3.57468 8.17097 3.76544 8.24999 3.96436 8.24999H4.25071L3.29348 10.1645C3.24142 10.2687 3.21433 10.3835 3.21436 10.5V43.5C3.21436 43.6989 3.29337 43.8897 3.43403 44.0303C3.57468 44.171 3.76544 44.25 3.96436 44.25H4.12936L4.73686 46.6816C4.77737 46.8439 4.87098 46.988 5.0028 47.091C5.13462 47.194 5.29708 47.25 5.46436 47.25H20.4644C20.6316 47.25 20.7941 47.194 20.9259 47.091C21.0577 46.988 21.1513 46.8439 21.1919 46.6816L21.7994 44.25H21.9644C22.1633 44.25 22.354 44.171 22.4947 44.0303C22.6353 43.8897 22.7144 43.6989 22.7144 43.5V10.5C22.7144 10.3835 22.6873 10.2687 22.6352 10.1645L21.678 8.24999H21.9644C22.1633 8.24999 22.354 8.17097 22.4947 8.03032C22.6353 7.88967 22.7144 7.6989 22.7144 7.49999ZM11.2475 3.08789C11.5547 2.69445 11.9877 2.41846 12.4741 2.30612C12.9605 2.19378 13.4707 2.2519 13.9193 2.47077C14.3679 2.68963 14.7277 3.05594 14.9386 3.5084C15.1494 3.96086 15.1984 4.47201 15.0774 4.95629L14.6294 6.74999H11.2994L10.8511 4.95629C10.77 4.63527 10.7635 4.29993 10.8322 3.97603C10.901 3.65213 11.043 3.3483 11.2475 3.08789ZM5.92801 8.24999H20.0007L20.7507 9.74999H5.17801L5.92801 8.24999ZM19.8785 45.75H6.05026L5.67481 44.25H20.2539L19.8785 45.75ZM21.2144 42.75H4.71436V11.25H21.2144V42.75Z" fill="#FFA31A"/>
<path id="Vector_4" d="M12.9644 5.25C13.3786 5.25 13.7144 4.91421 13.7144 4.5C13.7144 4.08579 13.3786 3.75 12.9644 3.75C12.5501 3.75 12.2144 4.08579 12.2144 4.5C12.2144 4.91421 12.5501 5.25 12.9644 5.25Z" fill="#FFA31A"/>
<path id="Vector_5" d="M8.46459 30H12.115L11.4704 35.157C11.449 35.3285 11.4875 35.5021 11.5793 35.6485C11.6711 35.7949 11.8107 35.9051 11.9744 35.9605C12.0517 35.9868 12.1329 36.0001 12.2146 36C12.3457 36.0001 12.4746 35.9657 12.5884 35.9005C12.7021 35.8352 12.7967 35.7412 12.8628 35.6279L18.1128 26.6279C18.1793 26.5139 18.2146 26.3844 18.215 26.2524C18.2154 26.1205 18.181 25.9907 18.1153 25.8763C18.0495 25.7619 17.9547 25.6668 17.8405 25.6008C17.7262 25.5347 17.5966 25.4999 17.4646 25.5H15.0395L16.6076 22.886C16.6759 22.7721 16.7128 22.6423 16.7145 22.5095C16.7162 22.3768 16.6826 22.246 16.6172 22.1305C16.5519 22.015 16.457 21.9189 16.3423 21.8521C16.2277 21.7852 16.0973 21.75 15.9646 21.75H11.4646C11.3195 21.75 11.1775 21.792 11.0558 21.8711C10.9341 21.9501 10.838 22.0628 10.779 22.1953L7.77902 28.9453C7.72825 29.0596 7.70683 29.1846 7.7167 29.3092C7.72657 29.4338 7.76742 29.554 7.83554 29.6588C7.90365 29.7636 7.99688 29.8497 8.10674 29.9093C8.2166 29.9688 8.33961 30 8.46459 30ZM11.9516 23.25H14.6396L13.0715 25.8641C13.0032 25.9779 12.9664 26.1077 12.9647 26.2405C12.963 26.3732 12.9966 26.504 13.0619 26.6195C13.1273 26.735 13.2222 26.8311 13.3369 26.8979C13.4515 26.9648 13.5819 27 13.7146 27H16.1587L13.4137 31.7065L13.7089 29.343C13.7222 29.2374 13.7129 29.1303 13.6816 29.0286C13.6502 28.9269 13.5976 28.8331 13.5272 28.7534C13.4568 28.6736 13.3702 28.6098 13.2732 28.5661C13.1762 28.5224 13.071 28.4999 12.9646 28.5H9.61892L11.9516 23.25Z" fill="#FFA31A"/>
</g>
</svg>
