<svg viewBox="1 -28 511.999 511" xmlns="http://www.w3.org/2000/svg"><path d="m394.617188 227.539062c-2.628907 0-5.207032-1.070312-7.066407-2.929687-1.863281-1.859375-2.929687-4.4375-2.929687-7.070313 0-2.628906 1.066406-5.207031 2.929687-7.066406 1.859375-1.859375 4.4375-2.929687 7.066407-2.929687 2.632812 0 5.210937 1.070312 7.070312 2.929687s2.929688 4.4375 2.929688 7.066406c0 2.632813-1.070313 5.210938-2.929688 7.070313s-4.4375 2.929687-7.070312 2.929687zm0 0"/><path d="m468.878906 455.320312h-425.757812c-15.566406 0-29.503906-8.046874-37.285156-21.523437-7.78125-13.480469-7.78125-29.574219 0-43.050781l212.882812-368.722656c7.78125-13.476563 21.71875-21.523438 37.28125-21.523438s29.5 8.046875 37.28125 21.523438l88.273438 152.890624c2.761718 4.78125 1.121093 10.898438-3.660157 13.660157-4.785156 2.757812-10.898437 1.121093-13.660156-3.660157l-88.269531-152.890624c-4.167969-7.214844-11.632813-11.527344-19.964844-11.527344s-15.796875 4.3125-19.964844 11.527344l-212.878906 368.71875c-4.167969 7.21875-4.167969 15.835937 0 23.054687 4.164062 7.21875 11.628906 11.527344 19.964844 11.527344h425.757812c8.335938 0 15.796875-4.308594 19.964844-11.527344s4.167969-15.835937 0-23.054687l-85.332031-147.800782c-2.761719-4.78125-1.121094-10.894531 3.660156-13.65625 4.78125-2.761718 10.898437-1.125 13.660156 3.660156l85.332031 147.800782c7.78125 13.476562 7.78125 29.570312 0 43.050781-7.785156 13.476563-21.71875 21.523437-37.285156 21.523437zm0 0"/><path d="m256 303.027344c-17.644531 0-31.996094-14.355469-31.996094-31.996094v-90.242188c0-17.644531 14.351563-31.996093 31.996094-31.996093s31.996094 14.351562 31.996094 31.996093v90.242188c0 17.640625-14.351563 31.996094-31.996094 31.996094zm0-134.234375c-6.617188 0-12 5.382812-12 11.996093v90.242188c0 6.617188 5.382812 12 12 12s12-5.382812 12-12v-90.242188c0-6.613281-5.382812-11.996093-12-11.996093zm0 0"/><path d="m256 391.019531c-17.644531 0-31.996094-14.351562-31.996094-31.996093 0-17.644532 14.351563-31.996094 31.996094-31.996094s31.996094 14.351562 31.996094 31.996094c0 8.546874-3.328125 16.582031-9.371094 22.625-6.042969 6.042968-14.078125 9.371093-22.625 9.371093zm0-43.996093c-6.617188 0-12 5.382812-12 12 0 6.617187 5.382812 12 12 12 3.203125 0 6.21875-1.25 8.484375-3.515626 2.265625-2.265624 3.515625-5.28125 3.515625-8.484374 0-6.617188-5.382812-12-12-12zm0 0"/></svg>
