<svg xmlns="http://www.w3.org/2000/svg" width="30" height="31" viewBox="0 0 30 31" fill="none">
    <rect y="0.5" width="30" height="30" rx="15" fill="#2879FE" fill-opacity="0.1"/>
    <path d="M15.2004 16.3081C12.8413 16.3081 10.9213 14.3881 10.9213 12.0291C10.9213 9.67 12.8413 7.75 15.2004 7.75C17.5595 7.75 19.4795 9.67 19.4795 12.0291C19.4795 14.3881 17.5595 16.3081 15.2004 16.3081ZM15.2004 8.86628C13.459 8.86628 12.0376 10.2877 12.0376 12.0291C12.0376 13.7705 13.459 15.1919 15.2004 15.1919C16.9418 15.1919 18.3632 13.7705 18.3632 12.0291C18.3632 10.2877 16.9418 8.86628 15.2004 8.86628Z" fill="#2879FE"/>
    <path fill-rule="evenodd" clip-rule="evenodd" d="M15.2004 8C12.9794 8 11.1713 9.80807 11.1713 12.0291C11.1713 14.2501 12.9794 16.0581 15.2004 16.0581C17.4214 16.0581 19.2295 14.2501 19.2295 12.0291C19.2295 9.80807 17.4214 8 15.2004 8ZM10.6713 12.0291C10.6713 9.53193 12.7033 7.5 15.2004 7.5C17.6975 7.5 19.7295 9.53193 19.7295 12.0291C19.7295 14.5262 17.6975 16.5581 15.2004 16.5581C12.7033 16.5581 10.6713 14.5262 10.6713 12.0291ZM11.7876 12.0291C11.7876 10.1496 13.3209 8.61628 15.2004 8.61628C17.0799 8.61628 18.6132 10.1496 18.6132 12.0291C18.6132 13.9085 17.0799 15.4419 15.2004 15.4419C13.3209 15.4419 11.7876 13.9085 11.7876 12.0291ZM15.2004 9.11628C13.5971 9.11628 12.2876 10.4257 12.2876 12.0291C12.2876 13.6324 13.5971 14.9419 15.2004 14.9419C16.8037 14.9419 18.1132 13.6324 18.1132 12.0291C18.1132 10.4257 16.8037 9.11628 15.2004 9.11628Z" fill="#2879FE"/>
    <path d="M21.5932 23.75C21.2881 23.75 21.0351 23.497 21.0351 23.1919C21.0351 20.6244 18.4156 18.5407 15.2007 18.5407C11.9858 18.5407 9.36628 20.6244 9.36628 23.1919C9.36628 23.497 9.11326 23.75 8.80814 23.75C8.50302 23.75 8.25 23.497 8.25 23.1919C8.25 20.0142 11.3681 17.4244 15.2007 17.4244C19.0333 17.4244 22.1513 20.0142 22.1513 23.1919C22.1513 23.497 21.8983 23.75 21.5932 23.75Z" fill="#2879FE"/>
    <path fill-rule="evenodd" clip-rule="evenodd" d="M15.2007 17.6744C11.4606 17.6744 8.5 20.1938 8.5 23.1919C8.5 23.3589 8.64109 23.5 8.80814 23.5C8.97518 23.5 9.11628 23.3589 9.11628 23.1919C9.11628 20.4363 11.9037 18.2907 15.2007 18.2907C18.4977 18.2907 21.2851 20.4363 21.2851 23.1919C21.2851 23.3589 21.4262 23.5 21.5932 23.5C21.7602 23.5 21.9013 23.3589 21.9013 23.1919C21.9013 20.1938 18.9408 17.6744 15.2007 17.6744ZM8 23.1919C8 19.8345 11.2757 17.1744 15.2007 17.1744C19.1257 17.1744 22.4013 19.8345 22.4013 23.1919C22.4013 23.6351 22.0364 24 21.5932 24C21.15 24 20.7851 23.6351 20.7851 23.1919C20.7851 20.8125 18.3335 18.7907 15.2007 18.7907C12.0679 18.7907 9.61628 20.8125 9.61628 23.1919C9.61628 23.6351 9.25133 24 8.80814 24C8.36495 24 8 23.6351 8 23.1919Z" fill="#2879FE"/>
</svg>
