<?xml version="1.0" standalone="no"?>
<!DOCTYPE svg PUBLIC "-//W3C//DTD SVG 20010904//EN"
 "http://www.w3.org/TR/2001/REC-SVG-20010904/DTD/svg10.dtd">
<svg version="1.0" xmlns="http://www.w3.org/2000/svg"
 width="430.000000pt" height="182.000000pt" viewBox="0 0 430.000000 182.000000"
 preserveAspectRatio="xMidYMid meet">

<g transform="translate(0.000000,182.000000) scale(0.100000,-0.100000)"
fill="#049489" stroke="none">
<path d="M105 1793 c-37 -20 -48 -31 -74 -74 -21 -33 -21 -44 -21 -695 l0
-661 23 -44 c38 -71 69 -83 232 -89 l140 -5 3 -102 c2 -64 7 -103 13 -103 6 0
76 47 155 105 l144 105 369 0 c211 0 380 4 395 10 32 12 85 67 91 94 2 12 6
33 10 49 6 32 8 31 -38 12 -54 -22 -914 -22 -957 0 -76 39 -95 144 -40 219 66
88 98 133 132 181 19 28 110 154 201 280 l167 230 -203 5 c-195 5 -205 6 -239
29 -46 32 -58 52 -68 115 -17 103 28 183 115 205 52 13 817 15 883 2 40 -8 42
-7 42 16 0 41 -38 91 -87 117 -29 14 -101 16 -695 16 -589 -1 -666 -3 -693
-17z"/>
<path d="M2747 1711 c-64 -42 -62 -20 -65 -641 l-3 -565 23 -45 c24 -45 66
-78 104 -79 38 -2 94 29 114 62 19 31 20 53 20 615 0 523 -2 587 -16 612 -35
58 -121 78 -177 41z"/>
<path d="M3793 1723 c-7 -2 -13 -13 -13 -24 0 -21 14 -25 101 -33 126 -10 243
-102 312 -244 36 -74 40 -93 45 -178 3 -52 9 -97 14 -100 21 -13 38 20 38 75
-1 178 -117 380 -260 455 -85 44 -194 67 -237 49z"/>
<path d="M3785 1574 c-25 -25 -3 -40 67 -48 144 -15 236 -124 254 -301 7 -67
17 -86 37 -66 24 24 -4 174 -49 258 -43 82 -109 129 -221 158 -70 18 -68 18
-88 -1z"/>
<path d="M3796 1441 c-13 -20 13 -49 50 -56 20 -3 48 -14 61 -22 32 -21 63
-84 63 -128 0 -39 15 -75 30 -75 23 0 31 41 20 97 -15 72 -52 128 -104 158
-49 28 -111 42 -120 26z"/>
<path d="M1567 1397 c-3 -6 -36 -54 -74 -105 -37 -51 -90 -124 -118 -162 -27
-39 -57 -79 -65 -89 -8 -11 -22 -29 -30 -41 -8 -13 -32 -45 -52 -71 -21 -27
-38 -51 -38 -53 0 -3 -25 -38 -55 -78 -30 -40 -55 -76 -55 -80 0 -4 107 -9
238 -10 130 -2 244 -5 252 -8 13 -4 15 39 15 348 0 322 -3 386 -18 349z"/>
<path d="M2019 1341 c-112 -22 -226 -117 -285 -236 -41 -84 -54 -148 -54 -265
0 -126 35 -229 108 -318 90 -112 150 -144 279 -150 85 -4 98 -2 147 22 30 15
57 33 60 41 9 23 52 18 69 -8 18 -28 86 -52 120 -43 40 10 86 54 97 94 6 22
10 181 10 393 l0 356 -29 41 c-51 70 -134 79 -188 21 -35 -36 -44 -36 -96 0
-46 31 -135 62 -176 60 -14 -1 -42 -4 -62 -8z m174 -265 c153 -63 152 -377 0
-442 -88 -38 -181 -2 -226 86 -26 50 -28 63 -25 146 3 80 6 96 33 139 17 26
46 56 65 66 41 22 108 24 153 5z"/>
<path d="M3369 1332 c-223 -59 -364 -293 -331 -549 18 -135 78 -247 174 -326
73 -60 130 -80 246 -85 118 -5 170 8 256 63 92 58 155 147 190 264 21 70 21
227 1 306 -45 170 -184 303 -354 335 -72 13 -104 12 -182 -8z m195 -265 c60
-34 96 -109 96 -201 0 -83 -11 -126 -42 -172 -60 -88 -193 -99 -266 -22 -30
33 -62 127 -62 182 0 92 53 195 114 222 48 20 115 17 160 -9z"/>
</g>
</svg>
