<svg width="41" height="41" viewBox="0 0 41 41" fill="none" xmlns="http://www.w3.org/2000/svg">
<rect x="0.90625" y="0.429688" width="40" height="40" rx="6" fill="url(#paint0_linear_10446_4700)"/>
<mask id="mask0_10446_4700" style="mask-type:alpha" maskUnits="userSpaceOnUse" x="8" y="7" width="26" height="27">
<rect x="8.23828" y="7.76172" width="25.3281" height="25.3281" fill="#D9D9D9"/>
</mask>
<g mask="url(#mask0_10446_4700)">
<path d="M16.679 25.7005C16.978 25.7005 17.2289 25.5992 17.4315 25.3966C17.6334 25.1947 17.7344 24.9442 17.7344 24.6452C17.7344 24.3462 17.6334 24.0953 17.4315 23.8927C17.2289 23.6908 16.978 23.5898 16.679 23.5898C16.38 23.5898 16.1292 23.6908 15.9266 23.8927C15.7247 24.0953 15.6237 24.3462 15.6237 24.6452C15.6237 24.9442 15.7247 25.1947 15.9266 25.3966C16.1292 25.5992 16.38 25.7005 16.679 25.7005ZM16.679 21.4792C16.978 21.4792 17.2289 21.3779 17.4315 21.1752C17.6334 20.9733 17.7344 20.7228 17.7344 20.4238C17.7344 20.1248 17.6334 19.874 17.4315 19.6714C17.2289 19.4694 16.978 19.3685 16.679 19.3685C16.38 19.3685 16.1292 19.4694 15.9266 19.6714C15.7247 19.874 15.6237 20.1248 15.6237 20.4238C15.6237 20.7228 15.7247 20.9733 15.9266 21.1752C16.1292 21.3779 16.38 21.4792 16.679 21.4792ZM16.679 17.2578C16.978 17.2578 17.2289 17.1565 17.4315 16.9539C17.6334 16.752 17.7344 16.5015 17.7344 16.2025C17.7344 15.9035 17.6334 15.6526 17.4315 15.45C17.2289 15.2481 16.978 15.1471 16.679 15.1471C16.38 15.1471 16.1292 15.2481 15.9266 15.45C15.7247 15.6526 15.6237 15.9035 15.6237 16.2025C15.6237 16.5015 15.7247 16.752 15.9266 16.9539C16.1292 17.1565 16.38 17.2578 16.679 17.2578ZM19.8451 25.7005H26.1771V23.5898H19.8451V25.7005ZM19.8451 21.4792H26.1771V19.3685H19.8451V21.4792ZM19.8451 17.2578H26.1771V15.1471H19.8451V17.2578ZM13.513 29.9219C12.9326 29.9219 12.4355 29.7154 12.0218 29.3024C11.6088 28.8887 11.4023 28.3916 11.4023 27.8112V13.0365C11.4023 12.456 11.6088 11.959 12.0218 11.5453C12.4355 11.1323 12.9326 10.9258 13.513 10.9258H28.2878C28.8682 10.9258 29.3653 11.1323 29.779 11.5453C30.1919 11.959 30.3984 12.456 30.3984 13.0365V27.8112C30.3984 28.3916 30.1919 28.8887 29.779 29.3024C29.3653 29.7154 28.8682 29.9219 28.2878 29.9219H13.513Z" fill="white"/>
</g>
<defs>
<linearGradient id="paint0_linear_10446_4700" x1="-2.0708" y1="-2.14677" x2="50.0101" y2="10.0418" gradientUnits="userSpaceOnUse">
<stop offset="0.00972591" stop-color="#44C3F9"/>
<stop offset="1" stop-color="#27E4A0"/>
</linearGradient>
</defs>
</svg>
