<svg width="25" height="24" viewBox="0 0 25 24" fill="none" xmlns="http://www.w3.org/2000/svg">
<rect width="24" height="24" rx="4" transform="matrix(-1 0 0 1 24.4453 0)" fill="url(#paint0_linear_10833_12572)"/>
<mask id="mask0_10833_12572" style="mask-type:alpha" maskUnits="userSpaceOnUse" x="4" y="6" width="17" height="15">
<rect width="15.6637" height="14.0037" transform="matrix(-1 0 0 1 20.3281 6)" fill="#D9D9D9"/>
</mask>
<g mask="url(#mask0_10833_12572)">
<path d="M15.1075 12.4194C14.9226 12.4194 14.7675 12.3633 14.6422 12.2513C14.5173 12.1397 14.4549 12.0012 14.4549 11.8359C14.4549 11.6706 14.5173 11.5319 14.6422 11.4198C14.7675 11.3082 14.9226 11.2524 15.1075 11.2524C15.2924 11.2524 15.4475 11.3082 15.5729 11.4198C15.6977 11.5319 15.7602 11.6706 15.7602 11.8359C15.7602 12.0012 15.6977 12.1397 15.5729 12.2513C15.4475 12.3633 15.2924 12.4194 15.1075 12.4194ZM12.4969 12.4194C12.312 12.4194 12.1569 12.3633 12.0315 12.2513C11.9067 12.1397 11.8442 12.0012 11.8442 11.8359C11.8442 11.6706 11.9067 11.5319 12.0315 11.4198C12.1569 11.3082 12.312 11.2524 12.4969 11.2524C12.6818 11.2524 12.8367 11.3082 12.9616 11.4198C13.0869 11.5319 13.1495 11.6706 13.1495 11.8359C13.1495 12.0012 13.0869 12.1397 12.9616 12.2513C12.8367 12.3633 12.6818 12.4194 12.4969 12.4194ZM9.88627 12.4194C9.70136 12.4194 9.54646 12.3633 9.42159 12.2513C9.29628 12.1397 9.23362 12.0012 9.23362 11.8359C9.23362 11.6706 9.29628 11.5319 9.42159 11.4198C9.54646 11.3082 9.70136 11.2524 9.88627 11.2524C10.0712 11.2524 10.2261 11.3082 10.351 11.4198C10.4763 11.5319 10.5389 11.6706 10.5389 11.8359C10.5389 12.0012 10.4763 12.1397 10.351 12.2513C10.2261 12.3633 10.0712 12.4194 9.88627 12.4194ZM19.0234 18.8377V8.33495C19.0234 8.01403 18.8955 7.7392 18.6397 7.51048C18.3843 7.28214 18.0771 7.16797 17.7181 7.16797H7.27566C6.9167 7.16797 6.6093 7.28214 6.35346 7.51048C6.09805 7.7392 5.97035 8.01403 5.97035 8.33495V15.3368C5.97035 15.6577 6.09805 15.9325 6.35346 16.1613C6.6093 16.3896 6.9167 16.5038 7.27566 16.5038H16.4128L19.0234 18.8377Z" fill="white"/>
</g>
<defs>
<linearGradient id="paint0_linear_10833_12572" x1="-1.78623" y1="-1.54588" x2="29.4623" y2="5.76729" gradientUnits="userSpaceOnUse">
<stop offset="0.00972591" stop-color="#44C3F9"/>
<stop offset="1" stop-color="#27E4A0"/>
</linearGradient>
</defs>
</svg>
