<svg width="48" height="48" viewBox="0 0 48 48" fill="none" xmlns="http://www.w3.org/2000/svg">
<path d="M24.4548 0.0731201C11.4799 0.0731201 0.991211 10.5729 0.991211 23.5616C0.991211 36.5503 11.4799 47.0501 24.4548 47.0501C37.352 47.0501 47.9184 36.5503 47.9184 23.5616C47.9184 10.5729 37.352 0.0731201 24.4548 0.0731201ZM24.4548 44.639C12.8007 44.639 3.32203 35.1503 3.32203 23.5616C3.32203 11.9729 12.8007 2.40641 24.4548 2.40641C36.1089 2.40641 45.5875 11.8951 45.5875 23.5616C45.5875 35.2281 36.0312 44.639 24.4548 44.639ZM35.2542 24.8838L20.7255 35.8503C19.4047 36.8614 17.3069 36.0058 17.3069 34.4503V12.5951C17.3069 11.0396 19.4047 10.1841 20.7255 11.1951L35.2542 22.0838C36.2643 22.8616 36.2643 24.1838 35.2542 24.8838Z" fill="white"/>
</svg>
