<svg width="41" height="41" viewBox="0 0 41 41" fill="none" xmlns="http://www.w3.org/2000/svg">
<rect x="0.539062" y="0.429688" width="40" height="40" rx="6" fill="url(#paint0_linear_10674_3646)"/>
<mask id="mask0_10674_3646" style="mask-type:alpha" maskUnits="userSpaceOnUse" x="8" y="7" width="27" height="27">
<rect x="8.75391" y="7.76562" width="25.3281" height="25.3281" fill="#D9D9D9"/>
</mask>
<g mask="url(#mask0_10674_3646)">
<path d="M15.0872 30.9818C14.5068 30.9818 14.0101 30.7753 13.5971 30.3623C13.1834 29.9486 12.9766 29.4515 12.9766 28.8711V11.9857C12.9766 11.4052 13.1834 10.9082 13.5971 10.4945C14.0101 10.0815 14.5068 9.875 15.0872 9.875H22.6593C22.9407 9.875 23.2091 9.92777 23.4645 10.0333C23.7192 10.1388 23.9433 10.2883 24.1368 10.4818L29.2552 15.6002C29.4486 15.7937 29.5981 16.0178 29.7037 16.2725C29.8092 16.5279 29.862 16.7963 29.862 17.0777V28.8711C29.862 29.4515 29.6555 29.9486 29.2425 30.3623C28.8288 30.7753 28.3317 30.9818 27.7513 30.9818H15.0872ZM22.4746 16.207C22.4746 16.506 22.5759 16.7565 22.7785 16.9584C22.9805 17.1611 23.2309 17.2624 23.5299 17.2624H27.7513L22.4746 11.9857V16.207Z" fill="white"/>
</g>
<defs>
<linearGradient id="paint0_linear_10674_3646" x1="-2.43798" y1="-2.14677" x2="49.643" y2="10.0418" gradientUnits="userSpaceOnUse">
<stop offset="0.00972591" stop-color="#44C3F9"/>
<stop offset="1" stop-color="#27E4A0"/>
</linearGradient>
</defs>
</svg>
