<svg width="41" height="41" viewBox="0 0 41 41" fill="none" xmlns="http://www.w3.org/2000/svg">
<rect x="0.90625" y="0.691406" width="40" height="40" rx="6" fill="url(#paint0_linear_10674_3645)"/>
<mask id="mask0_10674_3645" style="mask-type:alpha" maskUnits="userSpaceOnUse" x="9" y="8" width="26" height="26">
<rect x="9.12109" y="8.02734" width="25.3281" height="25.3281" fill="#D9D9D9"/>
</mask>
<g mask="url(#mask0_10674_3645)">
<path d="M20.7292 29.1354H15.9801C14.3795 29.1354 13.0122 28.5814 11.878 27.4733C10.7432 26.3652 10.1758 25.0108 10.1758 23.4102C10.1758 22.0383 10.5891 20.8158 11.4158 19.7429C12.2425 18.67 13.3242 17.984 14.661 17.685C15.1007 16.0668 15.9801 14.7564 17.2993 13.7539C18.6185 12.7513 20.1136 12.25 21.7845 12.25C23.8424 12.25 25.5879 12.9666 27.0211 14.3997C28.4549 15.8336 29.1719 17.5795 29.1719 19.6374C30.3855 19.7781 31.3927 20.3012 32.1933 21.2067C32.9933 22.1128 33.3932 23.1728 33.3932 24.3864C33.3932 25.7056 32.9317 26.827 32.0086 27.7508C31.0849 28.6739 29.9634 29.1354 28.6442 29.1354H22.8398V21.5897L24.5284 23.2255L26.0059 21.748L21.7845 17.5267L17.5632 21.748L19.0406 23.2255L20.7292 21.5897V29.1354Z" fill="white"/>
</g>
<defs>
<linearGradient id="paint0_linear_10674_3645" x1="-2.0708" y1="-1.88505" x2="50.0101" y2="10.3036" gradientUnits="userSpaceOnUse">
<stop offset="0.00972591" stop-color="#44C3F9"/>
<stop offset="1" stop-color="#27E4A0"/>
</linearGradient>
</defs>
</svg>
