<svg width="25" height="24" viewBox="0 0 25 24" fill="none" xmlns="http://www.w3.org/2000/svg">
<rect width="24" height="24" rx="4" transform="matrix(-1 0 0 1 24.4453 0)" fill="url(#paint0_linear_11025_3384)"/>
<mask id="mask0_11025_3384" style="mask-type:alpha" maskUnits="userSpaceOnUse" x="5" y="5" width="14" height="14">
<rect x="5" y="5" width="14" height="14" fill="#D9D9D9"/>
</mask>
<g mask="url(#mask0_11025_3384)">
<path d="M10.399 17.8307L10.1656 15.9641C10.0392 15.9155 9.92024 15.8571 9.80862 15.7891C9.69662 15.721 9.58715 15.6481 9.48021 15.5703L7.74479 16.2995L6.14062 13.5286L7.64271 12.3911C7.63299 12.3231 7.62812 12.2574 7.62812 12.194V11.8002C7.62812 11.7372 7.63299 11.6717 7.64271 11.6036L6.14062 10.4661L7.74479 7.69531L9.48021 8.42448C9.58715 8.3467 9.69896 8.27378 9.81562 8.20573C9.93229 8.13767 10.049 8.07934 10.1656 8.03073L10.399 6.16406H13.6073L13.8406 8.03073C13.967 8.07934 14.0862 8.13767 14.1982 8.20573C14.3098 8.27378 14.4191 8.3467 14.526 8.42448L16.2615 7.69531L17.8656 10.4661L16.3635 11.6036C16.3733 11.6717 16.3781 11.7372 16.3781 11.8002V12.194C16.3781 12.2574 16.3684 12.3231 16.349 12.3911L17.851 13.5286L16.2469 16.2995L14.526 15.5703C14.4191 15.6481 14.3073 15.721 14.1906 15.7891C14.074 15.8571 13.9573 15.9155 13.8406 15.9641L13.6073 17.8307H10.399ZM12.0323 14.0391C12.5962 14.0391 13.0774 13.8398 13.476 13.4411C13.8747 13.0425 14.074 12.5613 14.074 11.9974C14.074 11.4335 13.8747 10.9523 13.476 10.5536C13.0774 10.155 12.5962 9.95573 12.0323 9.95573C11.4587 9.95573 10.9749 10.155 10.581 10.5536C10.1874 10.9523 9.99063 11.4335 9.99063 11.9974C9.99063 12.5613 10.1874 13.0425 10.581 13.4411C10.9749 13.8398 11.4587 14.0391 12.0323 14.0391Z" fill="white"/>
</g>
<defs>
<linearGradient id="paint0_linear_11025_3384" x1="-1.78623" y1="-1.54588" x2="29.4623" y2="5.76729" gradientUnits="userSpaceOnUse">
<stop offset="0.00972591" stop-color="#44C3F9"/>
<stop offset="1" stop-color="#27E4A0"/>
</linearGradient>
</defs>
</svg>
