<svg width="64" height="42" viewBox="0 0 64 42" fill="none" xmlns="http://www.w3.org/2000/svg">
<mask id="mask0_68_3149" style="mask-type:luminance" maskUnits="userSpaceOnUse" x="1" y="1" width="62" height="40">
<path d="M12.5517 12.5571C15.6782 9.4095 20.1125 8.38644 24.0899 9.48681C27.1425 6.3313 29.0382 4.49455 29.777 3.97709C22.5833 0.189024 13.4933 1.33679 7.44927 7.42095C-1.78814e-05 14.9203 -1.78814e-05 27.0796 7.44927 34.579C14.1351 41.3099 24.5496 42 32 36.6483C32.8509 36.0372 33.6625 35.3476 34.4259 34.579L37.4578 31.5268L44.7882 24.1476C47.5919 21.3256 46.4059 17.3688 42.8415 17.3688H29.8975L32 15.2521C32.8918 14.3538 33.7841 13.456 34.6759 12.5582C35.5195 11.709 36.4583 11.0143 37.4578 10.4743C41.9469 8.04843 47.6586 8.74307 51.4483 12.5582C56.0815 17.2226 56.0815 24.779 51.4483 29.4434C48.3167 32.5961 43.8729 33.6175 39.891 32.5087H39.8904C37.8686 34.6247 35.9735 36.4604 34.2062 38.015C41.4021 41.8138 50.5021 40.6694 56.5501 34.5802C63.9994 27.0808 63.9994 14.9215 56.5501 7.42207C49.8648 0.690111 39.4504 -1.33514e-05 32 5.3517C31.1491 5.96282 30.3375 6.65238 29.5741 7.42095L26.5422 10.4732L19.6932 17.3682L18.6327 18.4359C16.3867 20.7218 17.9994 24.625 21.1932 24.6323H34.1019L32 26.7484L29.3241 29.4423C28.4805 30.2916 27.5416 30.9862 26.5422 31.5262C22.053 33.9521 16.3413 33.2575 12.5517 29.4423C7.91843 24.7779 7.91843 17.2215 12.5517 12.5571Z" fill="white"/>
</mask>
<g mask="url(#mask0_68_3149)">
<path d="M64 0H0V42H64V0Z" fill="url(#paint0_linear_68_3149)"/>
</g>
<defs>
<linearGradient id="paint0_linear_68_3149" x1="31.8675" y1="38.6055" x2="32.1894" y2="-3.55615" gradientUnits="userSpaceOnUse">
<stop stop-color="#1A85F8"/>
<stop offset="0.0721" stop-color="#1C8CF9"/>
<stop offset="0.698" stop-color="#28C4FD"/>
<stop offset="1" stop-color="#2DDAFF"/>
</linearGradient>
</defs>
</svg>
