<svg width="78" height="78" viewBox="0 0 78 78" fill="none" xmlns="http://www.w3.org/2000/svg">
<path d="M72.6053 46.7154C69.2722 43.3989 64.6674 41.3489 59.5833 41.3489C57.0583 41.3489 54.5687 41.8793 52.2584 42.8765H52.2435C49.9525 43.8669 47.8625 45.3229 46.1229 47.1788L26.285 66.9196L26.2827 66.9173L26.2108 66.9945L26.0042 67.2001L26.0087 67.2024C25.0476 68.1621 23.9233 68.9208 22.7099 69.4466C21.3869 70.0225 19.9281 70.3291 18.419 70.3291C15.4614 70.3291 12.7846 69.1354 10.8464 67.208C8.90929 65.2818 7.71074 62.6173 7.71074 59.6745C7.71074 56.7329 8.90815 54.0672 10.8464 52.1409C12.7835 50.2147 15.4614 49.0199 18.419 49.0199C19.9258 49.0199 21.3777 49.322 22.6882 49.8864L22.6859 49.8921C23.8822 50.4078 24.9837 51.1449 25.93 52.0694L25.9174 52.0807L30.8361 56.9748L36.2855 51.5526L31.5198 46.8097C29.8544 45.131 27.8933 43.8055 25.7565 42.8799H25.7416C23.4324 41.8838 20.9406 41.3523 18.4179 41.3523C13.3326 41.3523 8.7278 43.4023 5.39466 46.7188C2.06038 50.033 0 54.6146 0 59.6734C0 64.7343 2.06266 69.3138 5.3958 72.6302C8.7278 75.9466 13.3326 78.0001 18.4179 78.0001C20.9622 78.0001 23.4667 77.464 25.7782 76.4589C27.8785 75.5469 29.8065 74.2475 31.4445 72.6143L31.4536 72.6222L51.7584 52.4169L51.4547 52.116L51.7538 52.3931C52.7686 51.3118 53.982 50.4668 55.3153 49.8899L55.313 49.8842C56.6234 49.3186 58.0754 49.0176 59.5844 49.0176C62.5397 49.0176 65.2188 50.2124 67.1559 52.1387C69.0918 54.0649 70.2915 56.7317 70.2915 59.6722C70.2915 62.6161 69.093 65.2795 67.1559 67.2058C65.2188 69.132 62.5397 70.3269 59.5844 70.3269C58.0754 70.3269 56.6165 70.0202 55.2924 69.4444C53.9706 68.8708 52.7595 68.0258 51.7458 66.9434L51.7527 66.9355L47.1856 62.3935L41.735 67.8157L46.3021 72.3576L46.3044 72.3553C47.996 74.1101 50.0119 75.498 52.2218 76.4566C54.5356 77.4606 57.04 77.9978 59.5844 77.9978C64.6686 77.9978 69.2733 75.9444 72.6065 72.6279C75.9396 69.3115 78.0011 64.7321 78.0011 59.6711C78 54.6146 75.9385 50.033 72.6053 46.7154Z" fill="#006FC3"/>
<path d="M33.2593 36.2311C30.5928 34.172 29.142 30.7124 29.142 30.7124C28.9502 33.8539 31.1578 37.4884 34.2935 40.3221C37.3881 43.1184 37.0239 45.4036 37.0136 45.4626C38.517 41.1342 35.9247 38.2902 33.2593 36.2311Z" fill="#ED1C24"/>
<path d="M40.0857 43.4261C47.381 33.6835 43.8994 30.3909 37.8518 19.9327C31.8043 9.47458 41.621 0 41.621 0C29.0133 2.54753 22.71 20.0259 31.6696 29.1949C40.6291 38.364 40.0857 43.4261 40.0857 43.4261Z" fill="#ED1C24"/>
<path d="M44.6663 21.4138C50.1614 29.496 46.665 36.4423 46.6342 36.5036C46.6901 36.4662 52.5437 32.558 53.9774 26.2851C55.4168 19.9816 51.2207 16.5244 46.4847 12.2902C41.7487 8.05607 41.8445 3.08936 41.8445 3.08936C37.4875 10.7887 39.1472 13.2954 44.6663 21.4138Z" fill="#ED1C24"/>
</svg>
