<svg width="78" height="78" viewBox="0 0 78 78" fill="none" xmlns="http://www.w3.org/2000/svg">
<path d="M72.6053 46.7151C69.2722 43.3987 64.6674 41.3486 59.5833 41.3486C57.0583 41.3486 54.5687 41.879 52.2584 42.8762H52.2435C49.9525 43.8666 47.8625 45.3227 46.1229 47.1785L26.285 66.9193L26.2827 66.917L26.2108 66.9943L26.0042 67.1998L26.0087 67.2021C25.0476 68.1618 23.9233 68.9205 22.7099 69.4464C21.3869 70.0222 19.9281 70.3289 18.419 70.3289C15.4614 70.3289 12.7846 69.1352 10.8464 67.2078C8.90929 65.2815 7.71074 62.617 7.71074 59.6742C7.71074 56.7326 8.90815 54.067 10.8464 52.1407C12.7835 50.2144 15.4614 49.0196 18.419 49.0196C19.9258 49.0196 21.3777 49.3217 22.6882 49.8862L22.6859 49.8919C23.8822 50.4075 24.9837 51.1446 25.93 52.0691L25.9174 52.0805L30.8361 56.9745L36.2855 51.5524L31.5198 46.8094C29.8544 45.1307 27.8933 43.8053 25.7565 42.8796H25.7416C23.4324 41.8836 20.9406 41.352 18.4179 41.352C13.3326 41.352 8.7278 43.4021 5.39466 46.7185C2.06038 50.0327 0 54.6144 0 59.6731C0 64.7341 2.06266 69.3135 5.3958 72.63C8.7278 75.9464 13.3326 77.9999 18.4179 77.9999C20.9622 77.9999 23.4667 77.4638 25.7782 76.4586C27.8785 75.5466 29.8065 74.2473 31.4445 72.6141L31.4536 72.622L51.7584 52.4167L51.4547 52.1157L51.7538 52.3928C52.7686 51.3116 53.982 50.4666 55.3153 49.8896L55.313 49.8839C56.6234 49.3183 58.0754 49.0173 59.5844 49.0173C62.5397 49.0173 65.2188 50.2122 67.1559 52.1384C69.0918 54.0647 70.2915 56.7315 70.2915 59.672C70.2915 62.6159 69.093 65.2793 67.1559 67.2055C65.2188 69.1318 62.5397 70.3266 59.5844 70.3266C58.0754 70.3266 56.6165 70.02 55.2924 69.4441C53.9706 68.8706 52.7595 68.0255 51.7458 66.9432L51.7527 66.9352L47.1856 62.3933L41.735 67.8154L46.3021 72.3574L46.3044 72.3551C47.996 74.1099 50.0119 75.4978 52.2218 76.4564C54.5356 77.4604 57.04 77.9976 59.5844 77.9976C64.6686 77.9976 69.2733 75.9441 72.6065 72.6277C75.9396 69.3112 78.0011 64.7318 78.0011 59.6708C78 54.6144 75.9385 50.0327 72.6053 46.7151Z" fill="white"/>
<path d="M33.2593 36.2311C30.5928 34.172 29.142 30.7124 29.142 30.7124C28.9502 33.8539 31.1578 37.4884 34.2935 40.3221C37.3881 43.1184 37.0239 45.4036 37.0136 45.4626C38.517 41.1342 35.9247 38.2902 33.2593 36.2311Z" fill="#ED1C24"/>
<path d="M40.0857 43.4261C47.381 33.6835 43.8994 30.3909 37.8518 19.9327C31.8043 9.47458 41.621 0 41.621 0C29.0133 2.54753 22.71 20.0259 31.6696 29.1949C40.6291 38.364 40.0857 43.4261 40.0857 43.4261Z" fill="#ED1C24"/>
<path d="M44.6663 21.4138C50.1614 29.496 46.665 36.4423 46.6342 36.5036C46.6901 36.4662 52.5437 32.558 53.9774 26.2851C55.4168 19.9816 51.2207 16.5244 46.4847 12.2902C41.7487 8.05607 41.8445 3.08936 41.8445 3.08936C37.4875 10.7887 39.1472 13.2954 44.6663 21.4138Z" fill="#ED1C24"/>
</svg>
